<?xml version="1.0" encoding="iso-8859-1"?>
<!-- Generator: Adobe Illustrator 18.0.0, SVG Export Plug-In . SVG Version: 6.00 Build 0)  -->
<!DOCTYPE svg PUBLIC "-//W3C//DTD SVG 1.1//EN" "http://www.w3.org/Graphics/SVG/1.1/DTD/svg11.dtd">
<svg version="1.1" id="_x31_" xmlns="http://www.w3.org/2000/svg" xmlns:xlink="http://www.w3.org/1999/xlink" x="0px" y="0px"
	 viewBox="0 0 512 512" style="enable-background:new 0 0 512 512;" xml:space="preserve">
<g>
	<rect style="fill:#FAF2AF;" width="512" height="512"/>
	<polygon style="opacity:0.1;fill:#040000;" points="512,229.58 512,512 183.654,512 93.543,421.888 90.163,418.509 96.512,397.362 
		100.198,386.765 144.537,342.425 183.808,303.155 284.774,202.189 350.72,136.242 384.666,102.246 	"/>
	<g>
		<path style="fill:#FBE6B7;" d="M221.542,340.837l-56.678,56.679l-0.717,0.716l-49.459,17.306
			c-1.894-3.84-4.403-7.475-7.577-10.649c-3.174-3.175-6.758-5.684-10.598-7.528l3.686-10.597l13.568-38.861l57.395-57.395
			l37.99,37.99L221.542,340.837z"/>
		<path style="fill:#595A59;" d="M114.688,415.539l-21.145,6.349l-4.813,1.434l1.433-4.813l6.349-21.146
			c3.84,1.844,7.424,4.353,10.598,7.528C110.285,408.064,112.793,411.699,114.688,415.539z"/>
		<polygon style="fill:#75B56F;" points="289.019,197.419 144.64,341.798 139.133,372.865 170.2,367.358 170.184,367.446 
			314.615,223.015 		"/>
		<polygon style="fill:#358C4E;" points="276.639,185.039 114.543,347.134 144.64,341.798 289.019,197.419 		"/>
		<g>
			<polygon style="fill:#75B56F;" points="385.344,101.094 284.519,201.919 310.115,227.516 410.791,126.84 423.166,139.215 
				423.315,139.065 			"/>
			
				<rect x="319.987" y="74.022" transform="matrix(0.7071 0.7071 -0.7071 0.7071 199.0403 -189.8931)" style="fill:#358C4E;" width="17.508" height="142.589"/>
			
				<rect x="357.89" y="112.176" transform="matrix(-0.7071 -0.7071 0.7071 -0.7071 496.2353 572.2776)" style="fill:#358C4E;" width="17.501" height="142.377"/>
		</g>
		<polygon style="fill:#358C4E;" points="170.184,367.446 164.848,397.532 326.99,235.39 314.615,223.015 		"/>
		
			<rect x="299.114" y="157.242" transform="matrix(-0.7071 0.7071 -0.7071 -0.7071 698.7557 61.2482)" style="fill:#C55B3C;" width="75.157" height="36.198"/>
		
			<rect x="308.951" y="118.774" transform="matrix(0.7071 0.7071 -0.7071 0.7071 203.6118 -178.8564)" style="fill:#C55B3C;" width="17.508" height="75.157"/>
		
			<rect x="346.928" y="156.748" transform="matrix(-0.7071 -0.7071 0.7071 -0.7071 469.7698 583.2397)" style="fill:#C55B3C;" width="17.501" height="75.157"/>
		<g>
			<path style="fill:#EAF1BE;" d="M340.48,190.054l3.584-3.584l-18.432-18.432l-3.584,3.585l7.527,7.526l-6.247,6.246l-7.526-7.526
				l-3.584,3.584l18.432,18.432l3.584-3.585l-7.731-7.73l6.246-6.248L340.48,190.054z"/>
			<path style="fill:#EAF1BE;" d="M358.246,166.092c-0.409-0.921-1.024-1.741-1.792-2.56c-0.666-0.665-1.382-1.178-2.048-1.485
				c-0.716-0.357-1.485-0.512-2.304-0.563c-0.358,0-0.717,0-1.075,0.05c-0.307,0.052-0.768,0.205-1.28,0.359
				c0.666-2.355,0.103-4.454-1.638-6.195c-0.768-0.768-1.638-1.331-2.509-1.689c-0.87-0.359-1.792-0.512-2.714-0.461
				c-0.973,0.051-1.894,0.306-2.816,0.768c-0.973,0.461-1.894,1.126-2.765,1.996l-7.373,7.425l18.432,18.432l7.68-7.732
				c0.87-0.87,1.536-1.74,1.997-2.712c0.461-0.974,0.666-1.895,0.717-2.868C358.81,167.935,358.605,167.014,358.246,166.092z
				 M336.742,163.327l3.533-3.533c0.717-0.717,1.485-1.126,2.304-1.178c0.768,0,1.536,0.308,2.201,0.921
				c0.614,0.666,0.922,1.382,0.871,2.201c0,0.82-0.41,1.587-1.178,2.305l-3.482,3.533L336.742,163.327z M352.512,171.571
				l-3.789,3.789l-4.506-4.557l3.737-3.738c0.768-0.716,1.536-1.126,2.355-1.178c0.819,0,1.587,0.308,2.304,1.024
				c0.717,0.717,1.075,1.485,1.024,2.304C353.638,170.086,353.229,170.854,352.512,171.571z"/>
		</g>
	</g>
</g>
</svg>
