<?xml version="1.0" encoding="iso-8859-1"?>
<!-- Generator: Adobe Illustrator 18.0.0, SVG Export Plug-In . SVG Version: 6.00 Build 0)  -->
<!DOCTYPE svg PUBLIC "-//W3C//DTD SVG 1.1//EN" "http://www.w3.org/Graphics/SVG/1.1/DTD/svg11.dtd">
<svg version="1.1" id="_x31_" xmlns="http://www.w3.org/2000/svg" xmlns:xlink="http://www.w3.org/1999/xlink" x="0px" y="0px"
	 viewBox="0 0 512 512" style="enable-background:new 0 0 512 512;" xml:space="preserve">
<g>
	<rect style="fill:#EBE5D3;" width="512" height="512"/>
	<polygon style="opacity:0.1;fill:#040000;" points="512,226.253 512,512 224.614,512 100.352,387.738 89.19,376.576 89.19,303.155 
		268.083,124.262 410.009,124.262 422.809,137.063 	"/>
	<g>
		<g>
			<rect x="89.19" y="124.262" style="fill:#6D6758;" width="333.619" height="263.475"/>
			<g>
				<g>
					<path style="fill:#FFFCFA;" d="M115.711,135.868h-6.677h-6.688c-2.644,0-4.808,2.163-4.808,4.808v9.649
						c0,2.644,2.164,4.808,4.808,4.808h6.688h6.677c2.644,0,4.808-2.164,4.808-4.808v-9.649
						C120.518,138.032,118.355,135.868,115.711,135.868z"/>
					<path style="fill:#FFFCFA;" d="M115.711,173.286h-6.677h-6.688c-2.644,0-4.808,2.163-4.808,4.808v9.649
						c0,2.644,2.164,4.808,4.808,4.808h6.688h6.677c2.644,0,4.808-2.163,4.808-4.808v-9.649
						C120.518,175.45,118.355,173.286,115.711,173.286z"/>
					<path style="fill:#FFFCFA;" d="M115.711,210.704h-6.677h-6.688c-2.644,0-4.808,2.164-4.808,4.808v9.649
						c0,2.644,2.164,4.808,4.808,4.808h6.688h6.677c2.644,0,4.808-2.163,4.808-4.808v-9.649
						C120.518,212.867,118.355,210.704,115.711,210.704z"/>
					<path style="fill:#FFFCFA;" d="M115.711,248.121h-6.677h-6.688c-2.644,0-4.808,2.163-4.808,4.808v9.649
						c0,2.644,2.164,4.808,4.808,4.808h6.688h6.677c2.644,0,4.808-2.164,4.808-4.808v-9.649
						C120.518,250.285,118.355,248.121,115.711,248.121z"/>
					<path style="fill:#FFFCFA;" d="M115.711,285.539h-6.677h-6.688c-2.644,0-4.808,2.164-4.808,4.808v9.649
						c0,2.644,2.164,4.808,4.808,4.808h6.688h6.677c2.644,0,4.808-2.164,4.808-4.808v-9.649
						C120.518,287.702,118.355,285.539,115.711,285.539z"/>
					<path style="fill:#FFFCFA;" d="M115.711,322.956h-6.677h-6.688c-2.644,0-4.808,2.164-4.808,4.808v9.649
						c0,2.644,2.164,4.808,4.808,4.808h6.688h6.677c2.644,0,4.808-2.164,4.808-4.808v-9.649
						C120.518,325.12,118.355,322.956,115.711,322.956z"/>
					<path style="fill:#FFFCFA;" d="M115.711,360.374h-6.677h-6.688c-2.644,0-4.808,2.164-4.808,4.808v9.649
						c0,2.644,2.164,4.808,4.808,4.808h6.688h6.677c2.644,0,4.808-2.164,4.808-4.808v-9.649
						C120.518,362.537,118.355,360.374,115.711,360.374z"/>
				</g>
				<g>
					<path style="fill:#FFFCFA;" d="M409.024,135.868h-6.677h-6.688c-2.644,0-4.808,2.163-4.808,4.808v9.649
						c0,2.644,2.164,4.808,4.808,4.808h6.688h6.677c2.644,0,4.808-2.164,4.808-4.808v-9.649
						C413.832,138.032,411.669,135.868,409.024,135.868z"/>
					<path style="fill:#FFFCFA;" d="M409.024,173.286h-6.677h-6.688c-2.644,0-4.808,2.163-4.808,4.808v9.649
						c0,2.644,2.164,4.808,4.808,4.808h6.688h6.677c2.644,0,4.808-2.163,4.808-4.808v-9.649
						C413.832,175.45,411.669,173.286,409.024,173.286z"/>
					<path style="fill:#FFFCFA;" d="M409.024,210.704h-6.677h-6.688c-2.644,0-4.808,2.164-4.808,4.808v9.649
						c0,2.644,2.164,4.808,4.808,4.808h6.688h6.677c2.644,0,4.808-2.163,4.808-4.808v-9.649
						C413.832,212.867,411.669,210.704,409.024,210.704z"/>
					<path style="fill:#FFFCFA;" d="M409.024,248.121h-6.677h-6.688c-2.644,0-4.808,2.163-4.808,4.808v9.649
						c0,2.644,2.164,4.808,4.808,4.808h6.688h6.677c2.644,0,4.808-2.164,4.808-4.808v-9.649
						C413.832,250.285,411.669,248.121,409.024,248.121z"/>
					<path style="fill:#FFFCFA;" d="M409.024,285.539h-6.677h-6.688c-2.644,0-4.808,2.164-4.808,4.808v9.649
						c0,2.644,2.164,4.808,4.808,4.808h6.688h6.677c2.644,0,4.808-2.164,4.808-4.808v-9.649
						C413.832,287.702,411.669,285.539,409.024,285.539z"/>
					<path style="fill:#FFFCFA;" d="M409.024,322.956h-6.677h-6.688c-2.644,0-4.808,2.164-4.808,4.808v9.649
						c0,2.644,2.164,4.808,4.808,4.808h6.688h6.677c2.644,0,4.808-2.164,4.808-4.808v-9.649
						C413.832,325.12,411.669,322.956,409.024,322.956z"/>
					<path style="fill:#FFFCFA;" d="M409.024,360.374h-6.677h-6.688c-2.644,0-4.808,2.164-4.808,4.808v9.649
						c0,2.644,2.164,4.808,4.808,4.808h6.688h6.677c2.644,0,4.808-2.164,4.808-4.808v-9.649
						C413.832,362.537,411.669,360.374,409.024,360.374z"/>
				</g>
			</g>
			<path style="fill:#FFFCFA;" d="M382.413,124.262v20.122c0,9.063-7.424,16.384-16.384,16.384H146.022
				c-8.96,0-16.384-7.322-16.384-16.384v-20.122H382.413z"/>
			<path style="fill:#FFFCFA;" d="M366.012,180.773H146.027c-9.004,0-16.371,7.367-16.371,16.371v121.218
				c0,9.004,7.367,16.371,16.371,16.371h219.985c9.004,0,16.371-7.367,16.371-16.371V197.145
				C382.383,188.14,375.016,180.773,366.012,180.773z"/>
			<path style="fill:#FFFCFA;" d="M382.408,371.105v16.651H129.646v-16.651c0-9.033,7.4-16.379,16.379-16.379h220.004
				C375.007,354.726,382.408,362.072,382.408,371.105z"/>
		</g>
		<g>
			<circle style="fill:#807B70;" cx="256.019" cy="257.125" r="53.156"/>
			<polygon style="fill:#FFFFFF;" points="237.971,227.555 289.188,257.125 237.971,286.695 			"/>
		</g>
		<polygon style="opacity:0.08;fill:#040000;" points="422.809,124.262 422.809,387.738 124.262,387.738 387.737,124.262 		"/>
	</g>
</g>
</svg>
