<?xml version="1.0" encoding="iso-8859-1"?>
<!-- Generator: Adobe Illustrator 18.0.0, SVG Export Plug-In . SVG Version: 6.00 Build 0)  -->
<!DOCTYPE svg PUBLIC "-//W3C//DTD SVG 1.1//EN" "http://www.w3.org/Graphics/SVG/1.1/DTD/svg11.dtd">
<svg version="1.1" id="_x33_" xmlns="http://www.w3.org/2000/svg" xmlns:xlink="http://www.w3.org/1999/xlink" x="0px" y="0px"
	 viewBox="0 0 512 512" style="enable-background:new 0 0 512 512;" xml:space="preserve">
<g>
	<rect style="fill:#DEE49E;" width="512" height="512"/>
	<path style="opacity:0.1;fill:#040000;" d="M512,302.797V512H290.304l-78.848-78.848l-6.81-6.81v-9.318
		c0-5.786,4.711-10.547,10.496-10.547h30.618v-13.005c-47.718-5.12-85.197-45.824-85.197-94.823v-55.091
		c-0.921-0.563-1.741-1.177-2.458-1.946c-2.304-2.253-3.686-5.376-3.686-8.806c0-6.912,5.632-12.544,12.493-12.544h1.28v-7.373
		h3.482v-49.715c0-23.193,9.523-44.237,24.781-59.546c0.614-0.614,1.28-1.28,1.946-1.843c2.662-2.509,5.427-4.813,8.397-6.963
		C220.672,84.787,237.67,78.848,256,78.848c16.742,0,32.358,4.966,45.517,13.466L512,302.797z"/>
	<g>
		<g>
			<path style="fill:#252625;" d="M307.353,417.024v14.387c0,0.973-0.768,1.741-1.741,1.741h-99.226
				c-0.973,0-1.741-0.768-1.741-1.741v-14.387c0-5.786,4.711-10.547,10.496-10.547h81.715
				C302.643,406.477,307.353,411.238,307.353,417.024z"/>
		</g>
		<g>
			<path style="fill:#787878;" d="M266.24,341.248v75.52c0,1.126-0.922,2.048-2.048,2.048h-16.384c-1.126,0-2.048-0.921-2.048-2.048
				v-75.52c0-1.126,0.922-2.048,2.048-2.048h16.384C265.318,339.2,266.24,340.122,266.24,341.248z"/>
		</g>
		<g>
			<path style="fill:#252625;" d="M157.03,226.15v72.499c0,50.637,37.99,92.928,88.371,98.304c0.102,0,0.256,0.051,0.358,0.051
				c3.584,0.358,6.912,0.563,10.24,0.563c3.328,0,6.758-0.205,10.24-0.563c0.102,0,0.256-0.051,0.358-0.051
				c22.221-2.355,43.264-12.442,59.289-28.416c18.739-18.79,29.082-43.571,29.082-69.888V226.15H157.03z M347.904,298.65
				c0,24.423-9.575,47.463-27.034,64.87c-14.746,14.797-34.202,24.167-54.63,26.419c-0.103,0.051-0.256,0.051-0.358,0.051
				c-3.379,0.358-6.605,0.563-9.882,0.563c-3.226,0-6.4-0.205-9.882-0.563c-0.102,0-0.256-0.051-0.358-0.051
				c-46.592-5.171-81.664-44.339-81.664-91.29v-65.434h183.808V298.65z"/>
		</g>
		<g>
			<g>
				<path style="fill:#B87777;" d="M345.075,245.285c6.877,0,12.503-5.626,12.503-12.503l0,0c0-6.877-5.626-12.503-12.503-12.503
					h-7.988v25.007H345.075z"/>
			</g>
			<g>
				<path style="fill:#B87777;" d="M174.899,220.262v25.037h-7.987c-0.973,0-1.894-0.102-2.816-0.358
					c-1.28-0.256-2.458-0.717-3.533-1.383c-0.921-0.563-1.741-1.177-2.458-1.946c-0.41-0.41-0.768-0.819-1.075-1.229
					c-1.638-2.099-2.611-4.71-2.611-7.577c0-6.912,5.632-12.544,12.493-12.544H174.899z"/>
			</g>
		</g>
		<g>
			<path style="fill:#252625;" d="M340.326,222.106v60.877c0,23.193-9.523,44.237-24.781,59.546
				c-13.005,12.953-30.208,21.811-49.306,24.166c-3.328,0.41-6.758,0.614-10.24,0.614c-3.482,0-6.861-0.205-10.24-0.666
				c-41.626-5.069-74.087-40.755-74.087-83.661v-60.877H340.326z"/>
		</g>
		<g style="opacity:0.5;">
			<rect x="171.803" y="242.008" style="fill:#161616;" width="168.395" height="19.9"/>
		</g>
		<g>
			<rect x="168.192" y="212.89" style="fill:#DCDBDB;" width="175.616" height="19.917"/>
		</g>
		<g>
			<rect x="168.192" y="232.807" style="fill:#787878;" width="175.616" height="19.866"/>
		</g>
		<g>
			<g>
				<path style="fill:#3B393A;" d="M340.326,163.174v53.863H171.673v-53.863c0-23.193,9.523-44.237,24.781-59.546
					c0.614-0.614,1.28-1.28,1.946-1.843c2.662-2.509,5.427-4.813,8.397-6.963C220.672,84.787,237.67,78.848,256,78.848
					c16.742,0,32.358,4.966,45.517,13.466c1.229,0.819,2.457,1.638,3.686,2.509c2.97,2.15,5.734,4.454,8.397,6.963
					c5.017,4.71,9.523,10.035,13.261,15.872C335.36,130.765,340.326,146.432,340.326,163.174z"/>
			</g>
			<g>
				<path style="fill:#787878;" d="M208.845,99.123c0,3.072-2.458,5.581-5.53,5.581c-2.15,0-3.993-1.177-4.915-2.919
					c2.662-2.509,5.427-4.813,8.397-6.963C208.077,95.847,208.845,97.382,208.845,99.123z"/>
			</g>
			<g>
				<circle style="fill:#787878;" cx="256" cy="99.147" r="5.562"/>
			</g>
			<g>
				<path style="fill:#787878;" d="M305.197,94.823c-1.256,1.019-2.064,2.573-2.064,4.321c0,3.074,2.485,5.568,5.559,5.568
					c2.125,0,3.969-1.194,4.909-2.951L305.197,94.823z"/>
			</g>
			<g>
				<circle style="fill:#787878;" cx="203.308" cy="145.61" r="5.562"/>
			</g>
			<g>
				<circle style="fill:#787878;" cx="256" cy="145.61" r="5.562"/>
			</g>
			<g>
				<circle style="fill:#787878;" cx="308.692" cy="145.61" r="5.562"/>
			</g>
			<g>
				<circle style="fill:#787878;" cx="203.308" cy="192.074" r="5.562"/>
			</g>
			<g>
				<circle style="fill:#787878;" cx="256" cy="192.074" r="5.562"/>
			</g>
			<g>
				<circle style="fill:#787878;" cx="308.692" cy="192.074" r="5.562"/>
			</g>
		</g>
	</g>
	<path style="opacity:0.2;fill:#FFFFFF;" d="M206.797,94.823c-2.97,2.15-5.735,4.454-8.397,6.963
		c-0.666,0.563-1.331,1.229-1.946,1.843c-15.257,15.309-24.781,36.352-24.781,59.546v49.715h-3.482v7.373h-1.28
		c-6.861,0-12.493,5.632-12.493,12.544c0,2.867,0.973,5.478,2.611,7.577c0.307,0.41,0.666,0.819,1.075,1.229
		c0.717,0.768,1.536,1.383,2.458,1.946v55.091c0,48.998,37.479,89.703,85.197,94.823v13.005h-30.618
		c-5.785,0-10.496,4.762-10.496,10.547v14.387c0,0.973,0.768,1.741,1.741,1.741H256V78.848
		C237.67,78.848,220.672,84.787,206.797,94.823z M245.76,389.939c-46.592-5.171-81.664-44.339-81.664-91.29v-53.709
		c0.922,0.256,1.843,0.358,2.816,0.358h1.28v7.373h3.482v30.31c0,42.906,32.461,78.592,74.087,83.661V389.939z"/>
</g>
</svg>
