<?xml version="1.0" encoding="iso-8859-1"?>
<!-- Generator: Adobe Illustrator 18.0.0, SVG Export Plug-In . SVG Version: 6.00 Build 0)  -->
<!DOCTYPE svg PUBLIC "-//W3C//DTD SVG 1.1//EN" "http://www.w3.org/Graphics/SVG/1.1/DTD/svg11.dtd">
<svg version="1.1" id="_x33_" xmlns="http://www.w3.org/2000/svg" xmlns:xlink="http://www.w3.org/1999/xlink" x="0px" y="0px"
	 viewBox="0 0 512 512" style="enable-background:new 0 0 512 512;" xml:space="preserve">
<g>
	<rect style="fill:#827C6D;" width="512" height="512"/>
	<path style="opacity:0.1;fill:#040000;" d="M512,192.256V512H198.451l-81.254-81.254l-12.595-12.544
		c-6.656-14.592-3.994-32.461,7.936-44.39l97.946-97.997c2.56-2.509,6.809-2.509,9.318,0l1.075,1.075
		c5.427,0.154,10.906-1.843,15.104-5.991c3.584-3.686,5.632-8.345,5.99-13.107c-2.713-5.018-1.997-11.417,2.253-15.616l23.91-23.962
		c2.611-2.56,6.758-2.56,9.318,0l15.36,15.36l79.565-79.565l11.571-28.467l38.553-22.835l11.367,11.418l11.366,11.366L512,192.256z"
		/>
	<g>
		<g>
			<polygon style="fill:#ECEFE4;" points="428.95,104.635 427.236,107.492 404.437,146.004 375.981,157.603 296.443,237.141 
				296.443,237.198 264.845,268.739 254.046,257.94 243.246,247.14 274.845,215.599 354.383,136.004 365.982,107.549 404.494,84.75 
				407.351,83.036 418.15,93.835 			"/>
			<path style="fill:#65917D;" d="M277.416,288.281c-1.657-0.285-3.428-0.4-5.142-0.285h-0.114
				c-1.257,0.114-2.514,0.285-3.714,0.629c-0.4,0.114-0.8,0.229-1.2,0.343c-2.971,0.971-5.771,2.628-8.171,5.028
				c-2,2-3.543,4.343-4.514,6.857c-0.514,1.258-0.914,2.514-1.143,3.771c0.057,0.057,0,0.057,0,0.057
				c-0.286,1.486-0.457,2.971-0.343,4.4c0,1.085,0.114,2.171,0.286,3.257l-53.711-53.711c1.086,0.172,2.171,0.286,3.257,0.286
				c5.428,0.172,10.913-1.829,15.085-6c3.6-3.656,5.657-8.342,6-13.085c0.114-1.771,0.057-3.542-0.286-5.256L277.416,288.281z"/>
			<path style="fill:#93B2A2;" d="M254.16,319.479l-97.994,97.937c-11.942,11.942-29.827,14.628-44.398,7.943
				c-4.171-1.885-8.057-4.514-11.485-7.943l-5.714-5.714c-3.428-3.429-6.057-7.314-7.942-11.485
				c-6.686-14.571-4-32.455,7.942-44.398l97.937-97.994c2.571-2.514,6.8-2.514,9.314,0l1.086,1.085l25.084,25.084l26.17,26.17
				C256.674,312.679,256.674,316.908,254.16,319.479z"/>
			<g>
				<polygon style="fill:#427372;" points="112.521,383.595 104.106,371.475 195.583,279.998 203.999,292.118 				"/>
				<polygon style="fill:#427372;" points="128.39,399.464 140.51,407.88 231.988,316.402 219.868,307.986 				"/>
			</g>
			<path style="fill:#93B2A2;" d="M311.757,261.826l-23.941,23.941c-2.571,2.571-5.942,3.829-9.314,3.829
				c-0.514,0-1.029-0.057-1.543-0.114c-0.572-0.057-1.086-0.172-1.657-0.285c-1.086-0.229-2.171-0.629-3.143-1.2
				c-1.086-0.571-2.114-1.314-3.028-2.228l-21.427-21.427l-21.485-21.485c-0.914-0.914-1.657-1.943-2.229-3.029
				c-2.743-5.028-2-11.428,2.229-15.656l23.942-23.941c2.571-2.571,6.742-2.571,9.314,0l15.371,15.37l10.799,10.8l10.799,10.799
				l15.313,15.314C314.328,255.083,314.328,259.255,311.757,261.826z"/>
		</g>
		<path style="opacity:0.05;fill:#040000;" d="M287.808,285.785l23.958-23.958c2.567-2.567,2.567-6.768,0-9.335l-15.344-15.343
			l79.535-79.535l28.482-11.631l24.516-41.367l-10.793-10.793L97.417,414.568l2.875,2.876c15.361,15.361,40.496,15.36,55.857,0
			l97.989-97.989c2.56-2.56,2.56-6.75,0-9.31l-1.074-1.074c-0.13-5.444,1.849-10.928,6.002-15.081
			c3.667-3.667,8.374-5.65,13.173-5.978C277.237,290.691,283.605,289.988,287.808,285.785z"/>
	</g>
</g>
</svg>
