<?xml version="1.0" encoding="iso-8859-1"?>
<!-- Generator: Adobe Illustrator 18.0.0, SVG Export Plug-In . SVG Version: 6.00 Build 0)  -->
<!DOCTYPE svg PUBLIC "-//W3C//DTD SVG 1.1//EN" "http://www.w3.org/Graphics/SVG/1.1/DTD/svg11.dtd">
<svg version="1.1" id="_x31_" xmlns="http://www.w3.org/2000/svg" xmlns:xlink="http://www.w3.org/1999/xlink" x="0px" y="0px"
	 viewBox="0 0 512 512" style="enable-background:new 0 0 512 512;" xml:space="preserve">
<g>
	<rect style="fill:#138590;" width="512" height="512"/>
	<polygon style="opacity:0.1;fill:#231815;" points="512,281.088 512,512 218.061,512 127.949,421.888 131.226,398.848 
		119.91,387.533 162.304,171.571 163.123,172.339 168.294,135.219 248.832,215.706 269.261,70.656 360.141,161.485 364.083,133.171 
			"/>
	<g>
		<g>
			<g>
				<path style="fill:#DBDCDC;" d="M181.79,163.48v262.85h-50.231V163.48c0-12.746,14.716-31.426,25.121-31.426
					C167.071,132.053,181.79,150.734,181.79,163.48z"/>
				<rect x="131.559" y="183.095" style="fill:#BCBCBB;" width="50.231" height="10.101"/>
				<rect x="131.559" y="245.676" style="fill:#BCBCBB;" width="50.231" height="10.088"/>
			</g>
			<g>
				<path style="fill:#DBDCDC;" d="M381.619,163.48v262.85h-50.232V163.48c0-12.746,14.716-31.426,25.127-31.426
					C366.908,132.053,381.619,150.734,381.619,163.48z"/>
				<rect x="331.387" y="183.095" style="fill:#BCBCBB;" width="50.232" height="10.101"/>
				<rect x="331.387" y="245.676" style="fill:#BCBCBB;" width="50.232" height="10.088"/>
			</g>
		</g>
		<path style="fill:#DB471D;" d="M320.772,158.809V426.33H191.225V158.809c0-35.767,37.95-88.162,64.774-88.162
			C282.828,70.647,320.772,123.043,320.772,158.809z"/>
		<rect x="191.224" y="161.912" style="fill:#DF6548;" width="129.548" height="10.089"/>
		<rect x="191.224" y="227.505" style="fill:#DF6548;" width="129.548" height="10.095"/>
		<path style="fill:#FFFFFF;" d="M391.746,382.926c-0.926,9.695-5.87,13.572-13.778,14.733c-1.96,0.29-4.096,0.419-6.408,0.419
			H140.438c-2.309,0-4.451-0.129-6.402-0.413c-7.918-1.167-12.862-5.044-13.782-14.739c-1.057-11.101,7.489-18.358,32.6-36.328
			c27.672-19.815,60.469-44.036,64.632-93.265c0.287-3.438,0.442-6.992,0.442-10.689v-63.581c0-0.658,0.023-1.342,0.065-2.019
			c1.067-19.951,17.677-47.436,38.005-47.436c20.328,0,36.941,27.485,38.009,47.436c0.039,0.677,0.058,1.361,0.058,2.019v63.581
			c0,3.696,0.155,7.251,0.445,10.689c4.161,49.229,36.957,73.45,64.635,93.265C384.257,364.568,392.803,371.825,391.746,382.926z"/>
		<path style="fill:#BEDFE0;" d="M278.2,204.343c0,7.708-44.407,7.708-44.407,0c0-7.702,9.946-13.946,22.205-13.946
			C268.261,190.397,278.2,196.641,278.2,204.343z"/>
		<g>
			<polygon style="fill:#5A5553;" points="252.751,441.353 247.881,407.269 223.524,407.269 218.658,441.353 			"/>
			<polygon style="fill:#5A5553;" points="293.342,441.353 288.469,407.269 264.119,407.269 259.246,441.353 			"/>
		</g>
		<path style="fill:#DBDCDC;" d="M226.704,360.724c0,10.307-8.366,18.673-18.673,18.673c-10.311,0-18.673-8.366-18.673-18.673
			c0-10.315,8.363-18.667,18.673-18.667C218.338,342.057,226.704,350.41,226.704,360.724z"/>
		<rect x="219.158" y="387.976" style="fill:#FFFFFF;" width="73.679" height="21.189"/>
		<path style="fill:#5A5553;" d="M264.074,414.216c0,4.457-3.612,8.082-8.076,8.082l0,0c-4.46,0-8.075-3.625-8.075-8.082v-65.6
			c0-4.463,3.615-8.075,8.075-8.075l0,0c4.464,0,8.076,3.612,8.076,8.075V414.216z"/>
		<path style="fill:#5A5553;" d="M294.007,177.045h-76.014c1.067-19.951,17.677-47.436,38.005-47.436
			C276.326,129.609,292.939,157.094,294.007,177.045z"/>
		<path style="fill:#5A5553;" d="M217.486,253.333v33.716c0,14.132-21.192,41.385-41.378,57.523
			c-20.187,16.152-35.357,29.226-39.363,32.297c-5.925,4.548-8.95,12.868-2.709,20.796c-7.918-1.167-12.862-5.044-13.782-14.739
			c-1.057-11.101,7.489-18.358,32.6-36.328C180.526,326.783,213.323,302.561,217.486,253.333z"/>
		<path style="fill:#5A5553;" d="M294.51,253.333v33.716c0,14.132,21.198,41.385,41.379,57.523
			c20.186,16.152,35.36,29.226,39.363,32.297c5.928,4.548,8.95,12.868,2.715,20.796c7.908-1.167,12.852-5.044,13.778-14.739
			c1.057-11.101-7.489-18.358-32.6-36.328C331.47,326.783,298.671,302.561,294.51,253.333z"/>
	</g>
</g>
</svg>
