<?xml version="1.0" encoding="iso-8859-1"?>
<!-- Generator: Adobe Illustrator 18.0.0, SVG Export Plug-In . SVG Version: 6.00 Build 0)  -->
<!DOCTYPE svg PUBLIC "-//W3C//DTD SVG 1.1//EN" "http://www.w3.org/Graphics/SVG/1.1/DTD/svg11.dtd">
<svg version="1.1" id="_x31_" xmlns="http://www.w3.org/2000/svg" xmlns:xlink="http://www.w3.org/1999/xlink" x="0px" y="0px"
	 viewBox="0 0 512 512" style="enable-background:new 0 0 512 512;" xml:space="preserve">
<g>
	<rect style="fill:#E57D34;" width="512" height="512"/>
	<path style="opacity:0.1;fill:#040000;" d="M512,293.53V512H293.581L174.49,392.909l-10.342-10.342l-38.605-38.605l-3.738-3.738
		l-2.611-2.611c-11.227-18.696-18.66-39.886-21.339-62.513c-0.293-2.351-0.552-4.708-0.729-7.068
		c-0.153-2.048-0.256-4.096-0.358-6.144c-0.102-1.946-0.153-3.891-0.153-5.889c0-0.524,0.049-1.034,0.054-1.556
		c0.022-2.938,0.11-5.871,0.304-8.787c0.103-1.689,0.256-3.379,0.41-5.069c0.153-1.638,0.358-3.327,0.563-5.018
		c0.205-1.638,0.461-3.276,0.717-4.915c0.256-1.894,0.614-3.789,0.973-5.632c0.307-1.485,0.614-2.969,0.972-4.506
		c0.051-0.154,0.051-0.307,0.103-0.461c0.358-1.484,0.717-2.969,1.127-4.505c0.409-1.639,0.87-3.277,1.382-4.966
		c0.563-1.895,1.126-3.738,1.792-5.633c0.461-1.382,0.973-2.765,1.485-4.147c0.563-1.638,1.229-3.277,1.894-4.864
		c0.717-1.843,1.485-3.635,2.304-5.478c0.666-1.383,1.28-2.765,1.997-4.147c0.717-1.485,1.433-2.97,2.253-4.455
		c0.87-1.638,1.741-3.327,2.713-4.966c0.717-1.28,1.434-2.509,2.202-3.738c0.614-0.973,1.28-1.997,1.894-2.97
		c0.717-1.075,1.382-2.15,2.099-3.225c0.717-1.075,1.433-2.151,2.202-3.175c0.768-1.024,1.485-2.048,2.253-3.071
		c8.499-11.52,18.432-21.556,29.338-30.055c2.407-1.945,4.813-3.738,7.322-5.427c1.127-0.819,2.253-1.587,3.379-2.304
		c1.69-1.126,3.379-2.201,5.069-3.225c1.28-0.717,2.509-1.485,3.789-2.202c21.525-12.327,46.189-19.653,72.484-20.682
		c0.217-0.008,0.433-0.014,0.65-0.021c1.887-0.066,3.759-0.186,5.662-0.186c1.422,0,2.816,0.109,4.224,0.146
		c0.233,0.005,0.456,0,0.691,0.007c0.102,0,0.205,0.051,0.358,0c1.69,0.051,3.379,0.102,5.069,0.204
		c5.069,0.307,10.138,0.871,15.053,1.689c1.741,0.256,3.482,0.564,5.222,0.922c1.638,0.307,3.226,0.666,4.813,1.024
		c0.154,0.051,0.358,0.051,0.512,0.102c3.174,0.717,6.297,1.587,9.421,2.509c1.587,0.461,3.174,0.973,4.71,1.485
		c0.358,0.103,0.666,0.204,0.973,0.307c1.382,0.461,2.765,0.973,4.147,1.485c1.638,0.563,3.277,1.229,4.864,1.894
		c1.638,0.614,3.226,1.331,4.813,2.048c1.638,0.717,3.226,1.485,4.813,2.253c1.382,0.666,2.765,1.331,4.096,2.099
		c0.205,0.102,0.41,0.205,0.614,0.307c1.28,0.615,2.509,1.331,3.738,2.049c0.358,0.204,0.768,0.409,1.126,0.614
		c0.768,0.41,1.536,0.871,2.253,1.28v0.051c0.051,0.051,0.103,0.051,0.154,0.103l55.245,55.245c0,0.051,0.051,0.051,0.051,0.103
		l0.103,0.102L512,293.53z"/>
	<g>
		<path style="fill:#F8D176;" d="M255.914,418.03c-88.439,0-160.39-71.951-160.39-160.39s71.951-160.39,160.39-160.39
			c88.439,0,160.39,71.951,160.39,160.39S344.354,418.03,255.914,418.03z"/>
		<g style="opacity:0.2;">
			<g>
				<path style="fill:#FFFFFF;" d="M303.441,271.744c-1.654-4.832-4.327-8.902-8.011-12.209c-2.931-2.931-6.432-5.219-10.502-6.872
					c-4.07-1.654-9.224-2.932-15.463-3.823l-1.203-0.183l-15.022-2.298c-2.921-0.376-5.369-1.02-7.345-1.911
					c-0.827-0.365-1.6-0.773-2.33-1.213c-1.009-0.612-1.911-1.289-2.728-2.03c-1.407-1.396-2.384-2.921-2.964-4.574
					c-0.569-1.654-0.859-3.372-0.859-5.154c0-4.714,1.686-8.751,5.058-12.123c0.462-0.462,0.956-0.891,1.493-1.278
					c3.35-2.523,8.107-3.78,14.26-3.78c3.34,0,6.818,0.301,10.437,0.913c1.213,0.204,2.438,0.44,3.683,0.709
					c4.961,1.085,9.546,3.662,13.745,7.731l16.794-16.612c-5.853-5.723-12.274-9.793-19.275-12.209
					c-4.488-1.546-9.482-2.609-14.958-3.157c-3.06-0.322-6.282-0.473-9.664-0.473c-5.412,0-10.427,0.548-15.023,1.654
					c-1.664,0.397-3.275,0.859-4.832,1.407c-5.852,2.03-10.813,4.864-14.883,8.483c-4.07,3.629-7.195,7.957-9.353,12.982
					c-2.169,5.025-3.243,10.599-3.243,16.708c0,11.576,3.243,20.488,9.728,26.716c3.06,2.932,6.679,5.315,10.878,7.162
					c3.318,1.45,7.205,2.609,11.704,3.458c1.213,0.236,2.459,0.451,3.758,0.644l16.225,2.48c1.825,0.268,3.393,0.558,4.714,0.859
					c1.171,0.279,2.148,0.558,2.921,0.859c1.654,0.634,3.178,1.589,4.585,2.856c2.792,2.803,4.198,6.561,4.198,11.264
					c0,5.477-2.04,9.675-6.11,12.596c-1.568,1.138-3.436,2.051-5.595,2.738c-3.436,1.106-7.613,1.654-12.542,1.654
					c-4.188,0-8.247-0.376-12.156-1.127c-1.901-0.365-3.758-0.816-5.594-1.353c-5.595-1.654-10.556-4.639-14.883-8.966
					l-17.181,17.17c6.615,6.754,13.96,11.425,22.045,14.035c4.811,1.557,10.019,2.642,15.624,3.264
					c3.801,0.43,7.796,0.644,11.962,0.644c4.424,0,8.666-0.354,12.725-1.074c2.47-0.43,4.875-0.999,7.216-1.697
					c6.174-1.836,11.511-4.51,16.032-8.01c4.521-3.501,8.054-7.796,10.599-12.886c2.545-5.09,3.812-10.942,3.812-17.557
					C305.922,282.052,305.095,276.587,303.441,271.744z"/>
			</g>
			<path style="fill:#FFFFFF;" d="M268.263,192.111v23.097c-3.619-0.612-7.098-0.913-10.437-0.913c-6.153,0-10.91,1.256-14.26,3.78
				v-25.965c0-6.797,5.562-12.349,12.349-12.349c3.393,0,6.486,1.385,8.719,3.63c2.148,2.137,3.511,5.058,3.619,8.279
				C268.263,191.82,268.263,191.96,268.263,192.111z"/>
			<path style="fill:#FFFFFF;" d="M268.263,248.657v25.095c-1.321-0.301-2.888-0.591-4.714-0.859l-16.225-2.48
				c-1.299-0.193-2.545-0.408-3.758-0.644v-26.534c0.73,0.44,1.503,0.848,2.33,1.213c1.976,0.891,4.424,1.536,7.345,1.911
				L268.263,248.657z"/>
			<path style="fill:#FFFFFF;" d="M255.721,305.719c4.929,0,9.106-0.548,12.542-1.654v24.418c0,6.786-5.551,12.349-12.349,12.349
				c-6.701,0-12.209-5.423-12.338-12.091c-0.011-0.086-0.011-0.172-0.011-0.258v-23.892
				C247.474,305.343,251.533,305.719,255.721,305.719z"/>
		</g>
		<g style="opacity:0.5;">
			<path style="fill:#C69949;" d="M255.915,393.366c-74.84,0-135.726-60.886-135.726-135.726s60.886-135.726,135.726-135.726
				S391.64,182.801,391.64,257.64S330.754,393.366,255.915,393.366z M255.915,156.522c-55.757,0-101.119,45.362-101.119,101.119
				c0,55.757,45.362,101.119,101.119,101.119s101.119-45.362,101.119-101.119C357.033,201.884,311.671,156.522,255.915,156.522z"/>
		</g>
		<g>
			<path style="fill:#F8D176;" d="M210.805,148.791c0.287,0.73,0.536,1.392,0.744,1.986c0.209,0.593,0.361,1.157,0.454,1.69
				c0.094,0.53,0.119,1.046,0.073,1.542c-0.043,0.495-0.182,1.013-0.416,1.55c-0.311,0.717-0.741,1.343-1.289,1.881
				c-0.548,0.535-1.266,0.979-2.152,1.327c-0.884,0.348-1.714,0.513-2.489,0.496c-0.775-0.017-1.52-0.18-2.238-0.492
				c-0.536-0.235-0.989-0.518-1.359-0.851c-0.372-0.332-0.701-0.727-0.985-1.184c-0.289-0.457-0.556-0.973-0.808-1.55
				c-0.253-0.579-0.522-1.231-0.809-1.961c-0.286-0.728-0.533-1.389-0.741-1.983c-0.211-0.595-0.365-1.157-0.467-1.687
				c-0.1-0.527-0.13-1.041-0.084-1.537c0.043-0.496,0.184-1.013,0.416-1.55c0.313-0.717,0.745-1.345,1.301-1.886
				c0.555-0.539,1.274-0.982,2.161-1.33c0.886-0.349,1.712-0.513,2.479-0.493c0.765,0.019,1.508,0.185,2.225,0.496
				c0.537,0.234,0.991,0.52,1.361,0.851c0.37,0.333,0.701,0.727,0.996,1.181c0.294,0.453,0.567,0.97,0.819,1.545
				C210.25,147.41,210.521,148.064,210.805,148.791z M207.827,149.962c-0.287-0.728-0.539-1.326-0.755-1.793
				c-0.217-0.467-0.416-0.846-0.597-1.139c-0.181-0.293-0.355-0.517-0.524-0.671c-0.169-0.158-0.355-0.287-0.56-0.388
				c-0.31-0.16-0.656-0.248-1.036-0.274c-0.381-0.024-0.777,0.046-1.192,0.21c-0.413,0.161-0.755,0.383-1.016,0.658
				c-0.263,0.278-0.461,0.58-0.594,0.913c-0.08,0.215-0.13,0.437-0.146,0.665c-0.018,0.229,0.007,0.512,0.073,0.849
				c0.068,0.337,0.184,0.748,0.35,1.236c0.168,0.488,0.394,1.096,0.681,1.824c0.286,0.728,0.533,1.327,0.743,1.796
				c0.209,0.471,0.404,0.848,0.582,1.134c0.178,0.286,0.35,0.506,0.518,0.661c0.171,0.158,0.356,0.285,0.563,0.388
				c0.322,0.151,0.677,0.244,1.061,0.274c0.383,0.031,0.781-0.035,1.197-0.199c0.413-0.163,0.75-0.384,1.01-0.669
				c0.258-0.284,0.448-0.589,0.567-0.916c0.081-0.213,0.13-0.435,0.148-0.664c0.016-0.23-0.005-0.509-0.07-0.84
				c-0.063-0.329-0.175-0.738-0.334-1.228C208.335,151.302,208.113,150.691,207.827,149.962z"/>
			<path style="fill:#F8D176;" d="M225.888,153.011l-8.943-7.966l2.684,9.699l-3.084,0.854l-4.375-15.804l2.753-0.761l8.936,7.945
				l-2.679-9.677l3.087-0.853l4.374,15.801L225.888,153.011z"/>
			<path style="fill:#F8D176;" d="M231.933,151.731l-2.358-16.227l10.688-1.553l0.41,2.826l-7.519,1.093l0.551,3.804l6.406-0.928
				l0.408,2.823l-6.403,0.931l0.573,3.944l7.521-1.093l0.411,2.825L231.933,151.731z"/>
			<path style="fill:#F8D176;" d="M262.268,138.416c-0.003,0.692-0.129,1.347-0.377,1.968c-0.248,0.622-0.603,1.165-1.065,1.631
				c-0.462,0.466-1.034,0.833-1.709,1.098c-0.677,0.268-1.436,0.399-2.279,0.396l-3.157-0.014l-0.024,6.173l-3.2-0.011l0.063-16.398
				l6.356,0.025c0.844,0.003,1.605,0.141,2.28,0.412c0.674,0.27,1.24,0.643,1.699,1.111c0.458,0.471,0.81,1.018,1.053,1.639
				C262.151,137.07,262.27,137.723,262.268,138.416z M259.066,138.404c0.004-0.676-0.206-1.222-0.626-1.637
				c-0.42-0.417-1-0.628-1.736-0.628l-2.995-0.013l-0.016,4.489l2.995,0.013c0.735,0.002,1.316-0.198,1.739-0.603
				C258.85,139.62,259.064,139.08,259.066,138.404z"/>
			<path style="fill:#F8D176;" d="M264.487,149.907l1.838-16.292l10.732,1.209l-0.32,2.838l-7.552-0.85l-0.43,3.822l6.43,0.724
				l-0.321,2.839l-6.43-0.725l-0.446,3.959l7.552,0.85l-0.32,2.839L264.487,149.907z"/>
			<path style="fill:#F8D176;" d="M287.315,153.73l-4.055-11.271l-2.271,9.806l-3.119-0.723l3.7-15.975l2.781,0.645l4.062,11.248
				l2.265-9.782l3.119,0.723l-3.699,15.974L287.315,153.73z"/>
			<path style="fill:#F8D176;" d="M302.409,158.668l-2.632-11.683l-3.465,9.448l-3.006-1.104l5.648-15.392l2.68,0.984l2.639,11.663
				l3.459-9.428l3.005,1.104l-5.648,15.395L302.409,158.668z"/>
			<path style="fill:#F8D176;" d="M316.77,157.862l-3.004,6.014l-2.844-1.418l3.004-6.017l-0.088-10.853l3.11,1.552l-0.211,7.282
				l5.652-4.566l3.11,1.552L316.77,157.862z"/>
		</g>
		<g>
			<path style="fill:#F8D176;" d="M303.03,368.314c-0.287-0.73-0.536-1.392-0.744-1.986c-0.209-0.592-0.361-1.157-0.454-1.69
				c-0.094-0.53-0.119-1.046-0.073-1.542c0.043-0.495,0.182-1.013,0.416-1.55c0.311-0.717,0.741-1.343,1.289-1.881
				c0.548-0.535,1.266-0.979,2.152-1.327c0.884-0.348,1.714-0.513,2.489-0.496s1.52,0.18,2.238,0.492
				c0.536,0.235,0.989,0.518,1.359,0.851c0.371,0.332,0.701,0.727,0.985,1.184c0.289,0.457,0.556,0.973,0.808,1.55
				c0.254,0.579,0.522,1.231,0.809,1.96c0.286,0.728,0.533,1.389,0.741,1.983c0.211,0.595,0.365,1.157,0.467,1.687
				c0.1,0.527,0.13,1.041,0.084,1.537c-0.043,0.496-0.184,1.013-0.416,1.55c-0.313,0.717-0.745,1.345-1.301,1.886
				c-0.555,0.539-1.274,0.982-2.161,1.33c-0.886,0.349-1.712,0.513-2.479,0.493c-0.765-0.019-1.509-0.185-2.225-0.496
				c-0.537-0.234-0.991-0.52-1.361-0.851c-0.37-0.333-0.701-0.727-0.996-1.181c-0.294-0.453-0.567-0.97-0.819-1.545
				C303.585,369.696,303.314,369.041,303.03,368.314z M306.008,367.143c0.287,0.728,0.539,1.326,0.755,1.793
				c0.217,0.467,0.417,0.846,0.598,1.139c0.181,0.293,0.355,0.517,0.524,0.671c0.169,0.158,0.355,0.287,0.56,0.388
				c0.31,0.16,0.656,0.248,1.036,0.274c0.381,0.024,0.777-0.046,1.192-0.21c0.413-0.161,0.755-0.383,1.016-0.658
				c0.263-0.278,0.461-0.58,0.594-0.913c0.08-0.215,0.13-0.437,0.146-0.665c0.018-0.229-0.007-0.512-0.073-0.849
				c-0.068-0.337-0.184-0.748-0.35-1.236c-0.168-0.488-0.394-1.096-0.681-1.824c-0.286-0.728-0.533-1.327-0.743-1.796
				c-0.209-0.471-0.404-0.848-0.582-1.134c-0.178-0.286-0.35-0.506-0.518-0.661c-0.171-0.158-0.357-0.285-0.563-0.388
				c-0.322-0.151-0.677-0.244-1.061-0.274c-0.383-0.031-0.781,0.035-1.197,0.199c-0.413,0.163-0.75,0.384-1.01,0.669
				c-0.258,0.284-0.448,0.589-0.567,0.916c-0.081,0.213-0.13,0.435-0.148,0.664c-0.016,0.23,0.005,0.509,0.07,0.84
				c0.063,0.329,0.175,0.738,0.334,1.228C305.499,365.803,305.722,366.415,306.008,367.143z"/>
			<path style="fill:#F8D176;" d="M287.946,364.094l8.943,7.966l-2.684-9.699l3.084-0.854l4.375,15.804l-2.753,0.761l-8.936-7.945
				l2.679,9.677l-3.087,0.853l-4.374-15.801L287.946,364.094z"/>
			<path style="fill:#F8D176;" d="M281.902,365.374l2.358,16.227l-10.688,1.552l-0.41-2.826l7.519-1.093l-0.551-3.805l-6.406,0.928
				l-0.409-2.823l6.403-0.931l-0.573-3.944l-7.521,1.093l-0.411-2.825L281.902,365.374z"/>
			<path style="fill:#F8D176;" d="M251.567,378.69c0.003-0.692,0.129-1.347,0.377-1.968c0.248-0.622,0.603-1.165,1.065-1.631
				c0.462-0.466,1.033-0.833,1.709-1.098c0.677-0.268,1.436-0.399,2.279-0.396l3.157,0.014l0.024-6.173l3.2,0.012l-0.063,16.398
				l-6.356-0.025c-0.844-0.003-1.605-0.141-2.28-0.412c-0.674-0.27-1.24-0.643-1.699-1.111c-0.458-0.471-0.81-1.018-1.053-1.639
				C251.684,380.035,251.565,379.382,251.567,378.69z M254.768,378.701c-0.004,0.676,0.206,1.222,0.626,1.637
				c0.42,0.417,1,0.628,1.736,0.628l2.995,0.013l0.016-4.489l-2.995-0.013c-0.735-0.002-1.316,0.198-1.739,0.603
				C254.985,377.485,254.771,378.026,254.768,378.701z"/>
			<path style="fill:#F8D176;" d="M249.348,367.198l-1.838,16.293l-10.732-1.209l0.32-2.838l7.552,0.85l0.43-3.822l-6.43-0.724
				l0.321-2.839l6.43,0.725l0.446-3.959l-7.552-0.85l0.32-2.839L249.348,367.198z"/>
			<path style="fill:#F8D176;" d="M226.52,363.375l4.055,11.271l2.271-9.806l3.119,0.723l-3.7,15.975l-2.781-0.645l-4.062-11.248
				l-2.265,9.782l-3.119-0.723l3.699-15.974L226.52,363.375z"/>
			<path style="fill:#F8D176;" d="M211.425,358.438l2.632,11.683l3.465-9.448l3.006,1.104l-5.648,15.392l-2.68-0.984l-2.639-11.663
				l-3.459,9.428l-3.005-1.104l5.648-15.395L211.425,358.438z"/>
			<path style="fill:#F8D176;" d="M197.064,359.244l3.004-6.014l2.844,1.418l-3.004,6.017l0.088,10.853l-3.11-1.552l0.211-7.282
				l-5.652,4.566l-3.11-1.552L197.064,359.244z"/>
		</g>
		<g>
			<g>
				<path style="fill:#D9AE56;" d="M303.441,269.087c-1.654-4.832-4.327-8.902-8.011-12.209c-2.931-2.931-6.432-5.219-10.502-6.872
					c-4.07-1.654-9.224-2.932-15.463-3.823L268.263,246l-15.022-2.298c-2.921-0.376-5.369-1.02-7.345-1.911
					c-0.827-0.365-1.6-0.773-2.33-1.213c-1.009-0.612-1.911-1.289-2.728-2.03c-1.407-1.396-2.384-2.921-2.964-4.574
					c-0.569-1.654-0.859-3.372-0.859-5.154c0-4.714,1.686-8.751,5.058-12.123c0.462-0.462,0.956-0.891,1.493-1.278
					c3.35-2.523,8.107-3.78,14.26-3.78c3.34,0,6.818,0.301,10.437,0.913c1.213,0.204,2.438,0.44,3.683,0.709
					c4.961,1.085,9.546,3.662,13.745,7.732l16.794-16.612c-5.853-5.723-12.274-9.793-19.275-12.209
					c-4.488-1.546-9.482-2.609-14.958-3.157c-3.06-0.322-6.282-0.473-9.664-0.473c-5.412,0-10.427,0.548-15.023,1.654
					c-1.664,0.397-3.275,0.859-4.832,1.407c-5.852,2.03-10.813,4.864-14.883,8.483c-4.07,3.63-7.195,7.957-9.353,12.982
					c-2.169,5.025-3.243,10.599-3.243,16.708c0,11.576,3.243,20.488,9.728,26.716c3.06,2.932,6.679,5.315,10.878,7.162
					c3.318,1.45,7.205,2.609,11.704,3.458c1.213,0.236,2.459,0.451,3.758,0.644l16.225,2.48c1.825,0.268,3.393,0.558,4.714,0.859
					c1.171,0.279,2.148,0.558,2.921,0.859c1.654,0.633,3.178,1.589,4.585,2.856c2.792,2.803,4.198,6.561,4.198,11.264
					c0,5.477-2.04,9.675-6.11,12.596c-1.568,1.138-3.436,2.051-5.595,2.738c-3.436,1.106-7.613,1.654-12.542,1.654
					c-4.188,0-8.247-0.376-12.156-1.128c-1.901-0.365-3.758-0.816-5.594-1.353c-5.595-1.654-10.556-4.639-14.883-8.966
					l-17.181,17.17c6.615,6.754,13.96,11.425,22.045,14.035c4.811,1.557,10.019,2.642,15.624,3.264
					c3.801,0.43,7.796,0.644,11.962,0.644c4.424,0,8.666-0.354,12.725-1.074c2.47-0.43,4.875-0.999,7.216-1.697
					c6.174-1.836,11.511-4.51,16.032-8.011c4.521-3.501,8.054-7.796,10.599-12.886c2.545-5.09,3.812-10.942,3.812-17.557
					C305.922,279.396,305.095,273.93,303.441,269.087z"/>
			</g>
			<path style="fill:#D9AE56;" d="M268.263,189.454v23.098c-3.619-0.612-7.098-0.913-10.437-0.913c-6.153,0-10.91,1.256-14.26,3.78
				v-25.965c0-6.797,5.562-12.349,12.349-12.349c3.393,0,6.486,1.385,8.719,3.63c2.148,2.137,3.511,5.058,3.619,8.279
				C268.263,189.164,268.263,189.303,268.263,189.454z"/>
			<path style="fill:#D9AE56;" d="M268.263,246v25.095c-1.321-0.301-2.888-0.591-4.714-0.859l-16.225-2.48
				c-1.299-0.193-2.545-0.408-3.758-0.644v-26.534c0.73,0.44,1.503,0.848,2.33,1.213c1.976,0.891,4.424,1.536,7.345,1.911
				L268.263,246z"/>
			<path style="fill:#D9AE56;" d="M255.721,303.062c4.929,0,9.106-0.548,12.542-1.654v24.418c0,6.786-5.551,12.349-12.349,12.349
				c-6.701,0-12.209-5.423-12.338-12.091c-0.011-0.086-0.011-0.172-0.011-0.258v-23.892
				C247.474,302.687,251.533,303.062,255.721,303.062z"/>
		</g>
		<g>
			<circle style="fill:#F8D176;" cx="136.852" cy="257.64" r="5.99"/>
			<circle style="fill:#F8D176;" cx="373.777" cy="257.64" r="5.99"/>
		</g>
	</g>
	<path style="opacity:0.06;fill:#040000;" d="M255.989,417.879c41.072,0,82.145-15.633,113.413-46.901
		c62.536-62.536,62.536-164.29,0-226.826c-31.268-31.268-72.341-46.902-113.413-46.902L255.989,417.879z"/>
</g>
</svg>
