<?xml version="1.0" encoding="iso-8859-1"?>
<!-- Generator: Adobe Illustrator 18.0.0, SVG Export Plug-In . SVG Version: 6.00 Build 0)  -->
<!DOCTYPE svg PUBLIC "-//W3C//DTD SVG 1.1//EN" "http://www.w3.org/Graphics/SVG/1.1/DTD/svg11.dtd">
<svg version="1.1" id="_x31_" xmlns="http://www.w3.org/2000/svg" xmlns:xlink="http://www.w3.org/1999/xlink" x="0px" y="0px"
	 viewBox="0 0 512 512" style="enable-background:new 0 0 512 512;" xml:space="preserve">
<g>
	<rect style="fill:#99D4D9;" width="512" height="512"/>
	<polygon style="opacity:0.1;fill:#231815;" points="512,223.028 512,512 286.72,512 151.04,376.32 306.895,278.887 437.4,148.43 	
		"/>
	<g>
		<path style="fill:#838384;" d="M437.405,148.407C310.42,125.732,256,48.635,256,48.635s-54.425,77.098-181.405,99.772
			c0,49.888-4.54,215.42,181.405,297.053C441.94,363.828,437.405,198.295,437.405,148.407z"/>
		<path style="fill:#F1F2F1;" d="M256,410.49c-131.83-64.18-147.615-175.55-149.44-236.463c73.9-18.44,122.51-53.673,149.44-78.712
			c26.93,25.04,75.535,60.273,149.435,78.712C403.615,234.94,387.825,346.31,256,410.49z"/>
		<path style="fill:#F0C57B;" d="M392.575,180.29C391.17,235.28,377.745,338.18,256,396.98
			c-22.515-10.863-41.315-23.243-57.03-36.575c-21.245-17.96-36.825-37.642-48.28-57.575c-25.845-45.08-30.475-91.475-31.27-122.54
			c68.325-16.688,112.68-49.432,136.58-72.017c11.88,11.225,28.82,24.965,51.245,38.005c20.275,11.768,45.055,22.97,74.625,31.2
			C385.365,178.475,388.945,179.405,392.575,180.29z"/>
		<g>
			<path style="fill:#727171;" d="M256,108.273c-23.9,22.585-68.255,55.33-136.58,72.017c0.475,18.4,2.33,42.195,9.1,67.89H256
				V108.273z"/>
			<path style="opacity:0.26;fill:#F4E228;" d="M381.87,177.478c-29.57-8.23-54.35-19.432-74.625-31.2
				c-22.425-13.04-39.365-26.78-51.245-38.005V248.18h127.5c6.78-25.695,8.605-49.48,9.075-67.89
				C388.945,179.405,385.365,178.475,381.87,177.478z"/>
			<path style="opacity:0.26;fill:#F4E228;" d="M128.52,248.18c4.66,17.69,11.635,36.272,22.17,54.65
				c11.455,19.933,27.035,39.615,48.28,57.575c15.715,13.332,34.515,25.713,57.03,36.575v-148.8H128.52z"/>
			<path style="fill:#727171;" d="M256,396.98c80.985-39.115,114.035-97.74,127.5-148.8H256V396.98z"/>
		</g>
		<path style="opacity:0.08;fill:#231815;" d="M256,48.635c0,0,54.42,77.098,181.405,99.772c0,49.888,4.535,215.42-181.405,297.053
			V48.635z"/>
	</g>
</g>
</svg>
