<?xml version="1.0" encoding="iso-8859-1"?>
<!-- Generator: Adobe Illustrator 18.0.0, SVG Export Plug-In . SVG Version: 6.00 Build 0)  -->
<!DOCTYPE svg PUBLIC "-//W3C//DTD SVG 1.1//EN" "http://www.w3.org/Graphics/SVG/1.1/DTD/svg11.dtd">
<svg version="1.1" id="_x31_" xmlns="http://www.w3.org/2000/svg" xmlns:xlink="http://www.w3.org/1999/xlink" x="0px" y="0px"
	 viewBox="0 0 512 512" style="enable-background:new 0 0 512 512;" xml:space="preserve">
<g>
	<rect style="fill:#99D4D9;" width="512" height="512"/>
	<path style="opacity:0.1;fill:#231815;" d="M512,262.912V512H268.186l-11.776-11.776L112.794,356.608l-12.237-12.236
		l-23.296-23.296l-24.269-24.269l99.84-99.84l23.398-23.399l76.595-76.595c1.024-0.051,2.099-0.051,3.174-0.051
		c54.733,0,103.066,27.648,131.635,69.786c3.84-1.229,7.885-1.844,12.134-1.844c6.656,0,12.953,1.536,18.534,4.352L512,262.912z"/>
	<g>
		<g>
			<path style="fill:#FFFFFF;" d="M147.064,304.465c7.592-9.727,12.116-21.966,12.116-35.262c0-14.238-5.186-27.259-13.77-37.288
				c5.362-7.019,8.555-15.787,8.555-25.302c0-23.045-18.682-41.727-41.727-41.727c-23.045,0-41.727,18.682-41.727,41.727
				c0,4.604,0.757,9.03,2.136,13.173c-16.888,9.986-28.215,28.378-28.215,49.418c0,29.973,22.985,54.574,52.293,57.146
				c-0.085,0.936-0.135,1.878-0.135,2.835c0,17.283,14.011,31.294,31.296,31.294c17.283,0,31.294-14.011,31.294-31.294
				C159.18,319.13,154.433,310.191,147.064,304.465z"/>
			<path style="fill:#EAE9E9;" d="M415.283,326.349c0.051,0.921,0.103,1.894,0.103,2.816c0,17.305-13.978,31.334-31.283,31.334
				c-2.56,0-5.018-0.307-7.373-0.921c-12.544-3.021-22.118-13.568-23.654-26.624c-0.154-1.229-0.256-2.509-0.256-3.789
				c0-1.331,0.102-2.663,0.256-3.943c0.051-0.307,0.051-0.615,0.102-0.922c1.28-8.038,5.632-15.053,11.776-19.814
				c-5.171-6.554-8.858-14.285-10.752-22.681c-0.666-2.867-1.075-5.888-1.28-8.909c-0.051-1.229-0.102-2.458-0.102-3.687
				c0-9.984,2.56-19.404,7.065-27.546h0.051c0-0.051,0-0.051,0-0.102c1.075-1.945,2.253-3.84,3.533-5.632
				c0.973-1.382,1.997-2.713,3.123-3.993c-4.864-6.4-7.936-14.234-8.448-22.733c-0.051-0.871-0.103-1.741-0.103-2.611
				c0-2.611,0.256-5.171,0.717-7.629c2.816-15.411,14.131-27.802,28.877-32.256c3.84-1.229,7.885-1.844,12.134-1.844
				c6.656,0,12.953,1.536,18.534,4.352c8.141,4.044,14.797,10.701,18.842,18.841c2.816,5.581,4.352,11.879,4.352,18.534
				c0,4.608-0.768,9.063-2.15,13.209c16.896,9.984,28.211,28.365,28.211,49.408C467.558,299.161,444.57,323.789,415.283,326.349z"/>
		</g>
		<path style="fill:#EBD1B2;" d="M415.078,256c0,4.966-0.205,9.881-0.666,14.746c-2.713,29.235-13.312,56.217-29.645,78.694
			c-1.536,2.099-3.123,4.199-4.813,6.246c-1.024,1.331-2.099,2.611-3.226,3.891c-4.506,5.274-9.421,10.291-14.592,14.899
			c-0.768,0.666-1.485,1.331-2.253,1.997c-1.587,1.383-3.225,2.714-4.864,4.045c-1.741,1.382-3.482,2.713-5.274,3.993
			c-2.202,1.638-4.403,3.174-6.707,4.659c-1.536,0.973-3.072,1.946-4.608,2.918c-0.768,0.461-1.587,0.922-2.407,1.383
			c-1.433,0.819-2.816,1.638-4.301,2.407c-6.861,3.789-14.08,7.014-21.555,9.676c-1.894,0.717-3.84,1.383-5.786,1.997
			c-1.792,0.563-3.584,1.127-5.427,1.638c-0.768,0.205-1.536,0.461-2.355,0.615c-2.099,0.563-4.301,1.126-6.451,1.587
			c-0.512,0.102-1.024,0.256-1.587,0.307c-1.177,0.308-2.355,0.513-3.533,0.718c-1.075,0.204-2.202,0.409-3.328,0.563
			c-1.331,0.256-2.714,0.461-4.096,0.615c-1.127,0.154-2.253,0.307-3.379,0.461c-1.178,0.102-2.406,0.256-3.635,0.358
			c-1.229,0.103-2.509,0.205-3.84,0.307c-3.533,0.256-7.117,0.359-10.752,0.359c-5.018,0-10.035-0.205-14.95-0.718
			c-42.24-3.891-79.667-24.32-105.779-54.784c-23.91-27.801-38.349-64-38.349-103.578c0-1.075,0-2.151,0.051-3.174
			c0.614-31.898,10.598-61.491,27.392-86.118c28.007-41.319,75.008-68.711,128.461-69.735c1.024-0.051,2.099-0.051,3.174-0.051
			c54.733,0,103.066,27.648,131.635,69.786C404.941,192.154,415.078,222.874,415.078,256z"/>
		<path style="fill:#DABC9D;" d="M384.762,349.449c-28.922,39.778-75.824,65.634-128.759,65.634c-5.04,0-10.021-0.234-14.937-0.697
			l-86.669-86.667l206.026-2.609L384.762,349.449z"/>
		<path style="fill:#DABC9D;" d="M414.407,270.741c-2.686,29.248-13.288,56.207-29.645,78.708
			c-22.518,30.976-55.947,53.508-94.636,61.964l-165.668-165.67l4.089-4.087H385.33L414.407,270.741z"/>
		<g>
			<circle style="fill:#E0F2FA;" cx="187.297" cy="238.531" r="44.495"/>
			<circle style="fill:#E0F2FA;" cx="324.702" cy="238.531" r="44.496"/>
			<g>
				<path style="fill:#604C3F;" d="M243.763,235.161c-0.409-6.195-1.843-12.134-4.147-17.612
					c-4.096-9.728-10.956-17.92-19.558-23.757c-8.602-5.786-18.995-9.216-30.157-9.216c-7.424,0-14.541,1.536-20.992,4.249
					c-5.837,2.457-11.11,5.888-15.667,10.137c-3.072,2.816-5.786,5.991-8.089,9.421c-5.171,7.731-8.499,16.896-9.114,26.777
					c-0.051,1.126-0.102,2.253-0.102,3.379c0,1.024,0.051,2.099,0.102,3.123c0.103,2.202,0.359,4.404,0.768,6.503
					c0.717,3.942,1.843,7.782,3.379,11.366c0.512,1.229,1.075,2.406,1.639,3.584c3.84,7.424,9.318,13.824,15.974,18.688
					c0.614,0.512,1.28,0.973,1.946,1.434c1.741,1.177,3.482,2.252,5.376,3.174c7.424,3.891,15.872,6.093,24.781,6.093
					c7.424,0,14.541-1.536,20.992-4.249c9.728-4.148,17.92-10.958,23.757-19.559c4.096-6.041,6.963-13.056,8.346-20.531
					c0.409-2.099,0.666-4.301,0.768-6.503c0.051-1.024,0.103-2.099,0.103-3.123C243.866,237.414,243.814,236.288,243.763,235.161z
					 M224.768,241.664c-0.307,3.686-1.178,7.219-2.56,10.496c-2.663,6.297-7.117,11.674-12.698,15.411
					c-2.816,1.894-5.888,3.43-9.165,4.403c-3.277,1.024-6.81,1.587-10.445,1.587c-4.864,0-9.421-0.972-13.619-2.714
					c-6.298-2.662-11.674-7.116-15.462-12.749c-1.844-2.764-3.379-5.836-4.404-9.164c-0.716-2.304-1.177-4.762-1.382-7.271
					c-0.103-1.024-0.154-2.048-0.154-3.123c0-4.864,0.973-9.472,2.714-13.671c2.662-6.246,7.117-11.622,12.749-15.411
					c2.765-1.894,5.837-3.379,9.113-4.402c3.328-1.024,6.81-1.587,10.445-1.587c4.864,0,9.472,1.024,13.619,2.765
					c6.297,2.662,11.674,7.116,15.462,12.697c1.894,2.816,3.379,5.888,4.403,9.165c1.024,3.276,1.536,6.809,1.536,10.444
					C224.922,239.616,224.87,240.64,224.768,241.664z"/>
				<path style="fill:#604C3F;" d="M131.935,248.177c-3.6,0-6.521-2.921-6.521-6.521c0-3.6,2.921-6.519,6.521-6.519h13.632
					c3.602,0,6.521,2.919,6.521,6.519c0,3.6-2.919,6.521-6.521,6.521H131.935L131.935,248.177z"/>
				<path style="fill:#604C3F;" d="M375.962,235.161c-0.614-9.881-3.942-19.046-9.113-26.777c-2.304-3.43-5.018-6.605-8.09-9.421
					c-4.557-4.249-9.83-7.68-15.667-10.137c-6.451-2.714-13.568-4.249-20.992-4.249c-11.162,0-21.555,3.43-30.157,9.216
					c-8.602,5.837-15.462,14.029-19.558,23.757c-2.304,5.479-3.789,11.469-4.147,17.715c-0.051,1.075-0.103,2.202-0.103,3.277
					c0,1.024,0.051,2.099,0.103,3.123c0.102,2.151,0.358,4.25,0.768,6.298c1.331,7.577,4.25,14.644,8.346,20.736
					c5.837,8.601,14.029,15.411,23.757,19.559c6.451,2.713,13.568,4.249,20.992,4.249c11.161,0,21.555-3.431,30.156-9.267
					c0.666-0.461,1.331-0.922,1.946-1.434c7.68-5.633,13.824-13.313,17.613-22.272c1.536-3.584,2.663-7.424,3.379-11.366
					c0.409-2.099,0.666-4.301,0.768-6.503c0.051-1.024,0.103-2.099,0.103-3.123C376.064,237.414,376.013,236.288,375.962,235.161z
					 M311.654,271.974c-3.277-0.973-6.349-2.509-9.165-4.403c-5.581-3.738-10.035-9.114-12.697-15.411
					c-1.383-3.277-2.253-6.81-2.56-10.496c-0.102-1.024-0.154-2.048-0.154-3.123c0-3.635,0.512-7.168,1.536-10.444
					c1.024-3.277,2.509-6.349,4.403-9.165c3.789-5.581,9.165-10.035,15.463-12.697c4.147-1.741,8.755-2.765,13.619-2.765
					c3.635,0,7.116,0.563,10.445,1.587c3.277,1.024,6.349,2.509,9.113,4.402c5.632,3.789,10.087,9.165,12.749,15.411
					c1.741,4.199,2.713,8.807,2.713,13.671c0,1.076-0.051,2.099-0.153,3.123c-0.205,2.509-0.666,4.966-1.383,7.271
					c-1.024,3.328-2.56,6.4-4.403,9.164c-3.789,5.633-9.165,10.087-15.462,12.749c-4.198,1.741-8.755,2.714-13.619,2.714
					C318.464,273.561,314.931,272.999,311.654,271.974z"/>
				<path style="fill:#604C3F;" d="M380.065,248.177h-13.633c-3.6,0-6.519-2.921-6.519-6.521c0-3.6,2.919-6.519,6.519-6.519h13.633
					c3.6,0,6.521,2.919,6.521,6.519C386.586,245.256,383.665,248.177,380.065,248.177L380.065,248.177z"/>
				<path style="fill:#604C3F;" d="M240.464,248.177h27.015c3.602,0,6.521-2.921,6.521-6.521c0-3.6-2.919-6.519-6.521-6.519h-27.015
					c-3.602,0-6.521,2.919-6.521,6.519C233.943,245.256,236.862,248.177,240.464,248.177L240.464,248.177z"/>
			</g>
		</g>
		<path style="fill:#FFFFFF;" d="M323.845,311.061c-8.11-11.736-22.525-24.45-39.643-23.47c6.306,14.668-8.98,36.704-28.203,34.258
			c-19.22,2.446-34.509-19.59-28.201-34.258c-17.118-0.98-31.533,11.734-39.643,23.47c-12.251,17.726-35.186,12.632-35.186,12.632
			s12.08,28.799,52.324,32.059c28.559,2.313,50.705-23.47,50.705-23.47s22.149,25.783,50.707,23.47
			c40.245-3.26,52.325-32.059,52.325-32.059S336.095,328.788,323.845,311.061z"/>
		<circle style="fill:#EBD1B2;" cx="244.371" cy="292.51" r="15.647"/>
	</g>
</g>
</svg>
