<?xml version="1.0" encoding="iso-8859-1"?>
<!-- Generator: Adobe Illustrator 18.0.0, SVG Export Plug-In . SVG Version: 6.00 Build 0)  -->
<!DOCTYPE svg PUBLIC "-//W3C//DTD SVG 1.1//EN" "http://www.w3.org/Graphics/SVG/1.1/DTD/svg11.dtd">
<svg version="1.1" id="_x33_" xmlns="http://www.w3.org/2000/svg" xmlns:xlink="http://www.w3.org/1999/xlink" x="0px" y="0px"
	 viewBox="0 0 512 512" style="enable-background:new 0 0 512 512;" xml:space="preserve">
<g>
	<rect style="fill:#99D4D9;" width="512" height="512"/>
	<polygon style="opacity:0.1;fill:#040000;" points="512,258.1 512,512 205.466,512 116.787,423.323 112.896,419.43 109.005,415.54 
		109.005,246.732 145.357,246.732 145.357,282.726 160.512,282.726 160.512,107.725 206.746,107.725 206.746,146.995 
		242.483,146.995 242.483,107.725 288.614,107.725 288.614,146.995 324.403,146.995 324.403,107.725 361.626,107.725 	"/>
	<g>
		<g>
			<g>
				<rect x="232.934" y="98.096" style="fill:#C7653E;" width="46.132" height="46.131"/>
				<rect x="150.977" y="98.096" style="fill:#C7653E;" width="46.186" height="46.131"/>
				<rect x="314.837" y="98.096" style="fill:#C7653E;" width="46.186" height="46.131"/>
				<rect x="150.977" y="137.357" style="fill:#C7653E;" width="210.046" height="190.635"/>
			</g>
			<polygon style="fill:#A74823;" points="412.553,273.08 412.553,413.71 99.447,413.71 99.447,237.09 135.818,237.09 
				135.818,273.08 150.977,273.08 150.977,268.117 163.737,268.117 163.737,232.183 209.923,232.183 209.923,268.117 
				232.88,268.117 232.88,232.183 279.066,232.183 279.066,268.117 302.077,268.117 302.077,232.183 348.263,232.183 
				348.263,268.117 361.023,268.117 361.023,273.08 376.182,273.08 376.182,237.09 412.498,237.09 412.498,268.281 			"/>
		</g>
		<g>
			<rect x="150.977" y="118.926" style="opacity:0.1;fill:#FFFFFF;" width="46.186" height="3.926"/>
			<rect x="232.934" y="118.926" style="opacity:0.1;fill:#FFFFFF;" width="46.132" height="3.926"/>
			<rect x="314.837" y="118.926" style="opacity:0.1;fill:#FFFFFF;" width="46.186" height="3.926"/>
			<rect x="254.037" y="98.096" style="opacity:0.1;fill:#FFFFFF;" width="3.926" height="22.793"/>
			<rect x="150.977" y="118.926" style="opacity:0.1;fill:#FFFFFF;" width="46.186" height="3.926"/>
			<rect x="232.934" y="118.926" style="opacity:0.1;fill:#FFFFFF;" width="46.132" height="3.926"/>
			<rect x="314.837" y="118.926" style="opacity:0.1;fill:#FFFFFF;" width="46.186" height="3.926"/>
			<rect x="150.977" y="155.242" style="opacity:0.1;fill:#FFFFFF;" width="210.046" height="3.98"/>
			<rect x="174.934" y="120.878" style="opacity:0.1;fill:#FFFFFF;" width="3.93" height="36.357"/>
			<rect x="227.481" y="137.357" style="opacity:0.1;fill:#FFFFFF;" width="3.926" height="19.904"/>
			<rect x="280.047" y="137.357" style="opacity:0.1;fill:#FFFFFF;" width="3.98" height="19.904"/>
			<rect x="332.644" y="120.878" style="opacity:0.1;fill:#FFFFFF;" width="3.93" height="36.357"/>
			<rect x="150.977" y="155.242" style="opacity:0.1;fill:#FFFFFF;" width="210.046" height="3.98"/>
			<rect x="150.977" y="191.613" style="opacity:0.1;fill:#FFFFFF;" width="210.046" height="3.927"/>
			<rect x="201.465" y="157.235" style="opacity:0.1;fill:#FFFFFF;" width="3.93" height="36.357"/>
			<rect x="254.035" y="157.235" style="opacity:0.1;fill:#FFFFFF;" width="3.93" height="36.357"/>
			<rect x="306.604" y="157.235" style="opacity:0.1;fill:#FFFFFF;" width="3.93" height="36.357"/>
			<rect x="150.977" y="191.613" style="opacity:0.1;fill:#FFFFFF;" width="210.046" height="3.927"/>
			<rect x="150.977" y="227.984" style="opacity:0.1;fill:#FFFFFF;" width="210.046" height="3.926"/>
			<rect x="174.934" y="193.591" style="opacity:0.1;fill:#FFFFFF;" width="3.93" height="36.357"/>
			<rect x="227.504" y="193.591" style="opacity:0.1;fill:#FFFFFF;" width="3.93" height="36.357"/>
			<rect x="280.074" y="193.591" style="opacity:0.1;fill:#FFFFFF;" width="3.93" height="36.357"/>
			<rect x="332.644" y="193.591" style="opacity:0.1;fill:#FFFFFF;" width="3.93" height="36.357"/>
			<rect x="150.977" y="227.984" style="opacity:0.1;fill:#FFFFFF;" width="210.046" height="3.926"/>
			<rect x="99.447" y="264.355" style="opacity:0.1;fill:#FFFFFF;" width="36.371" height="3.926"/>
			<rect x="150.977" y="264.355" style="opacity:0.1;fill:#FFFFFF;" width="210.046" height="3.926"/>
			<rect x="376.164" y="264.339" style="opacity:0.1;fill:#FFFFFF;" width="36.357" height="3.93"/>
			<rect x="201.465" y="229.948" style="opacity:0.1;fill:#FFFFFF;" width="3.93" height="36.357"/>
			<rect x="254.035" y="229.948" style="opacity:0.1;fill:#FFFFFF;" width="3.93" height="36.357"/>
			<rect x="306.604" y="229.948" style="opacity:0.1;fill:#FFFFFF;" width="3.93" height="36.357"/>
			<rect x="99.447" y="264.355" style="opacity:0.1;fill:#FFFFFF;" width="36.371" height="3.926"/>
			<rect x="150.977" y="264.355" style="opacity:0.1;fill:#FFFFFF;" width="210.046" height="3.926"/>
			<rect x="376.164" y="264.339" style="opacity:0.1;fill:#FFFFFF;" width="36.357" height="3.93"/>
			<rect x="99.447" y="300.671" style="opacity:0.1;fill:#FFFFFF;" width="313.106" height="3.98"/>
			<rect x="122.365" y="266.305" style="opacity:0.1;fill:#FFFFFF;" width="3.931" height="36.357"/>
			<rect x="174.934" y="266.305" style="opacity:0.1;fill:#FFFFFF;" width="3.93" height="36.357"/>
			<rect x="227.504" y="266.305" style="opacity:0.1;fill:#FFFFFF;" width="3.93" height="36.357"/>
			<rect x="280.074" y="266.305" style="opacity:0.1;fill:#FFFFFF;" width="3.93" height="36.357"/>
			<rect x="332.644" y="266.305" style="opacity:0.1;fill:#FFFFFF;" width="3.93" height="36.357"/>
			<rect x="385.214" y="266.305" style="opacity:0.1;fill:#FFFFFF;" width="3.931" height="36.357"/>
			<rect x="99.447" y="300.671" style="opacity:0.1;fill:#FFFFFF;" width="313.106" height="3.98"/>
			<rect x="99.447" y="337.043" style="opacity:0.1;fill:#FFFFFF;" width="313.106" height="3.926"/>
			<rect x="148.895" y="302.661" style="opacity:0.1;fill:#FFFFFF;" width="3.93" height="36.357"/>
			<rect x="201.465" y="302.661" style="opacity:0.1;fill:#FFFFFF;" width="3.93" height="36.357"/>
			<rect x="254.035" y="302.661" style="opacity:0.1;fill:#FFFFFF;" width="3.93" height="36.357"/>
			<rect x="306.604" y="302.661" style="opacity:0.1;fill:#FFFFFF;" width="3.93" height="36.357"/>
			<rect x="359.174" y="302.661" style="opacity:0.1;fill:#FFFFFF;" width="3.93" height="36.357"/>
			<rect x="99.447" y="337.043" style="opacity:0.1;fill:#FFFFFF;" width="313.106" height="3.926"/>
			<rect x="99.447" y="373.413" style="opacity:0.1;fill:#FFFFFF;" width="313.106" height="3.926"/>
			<rect x="122.365" y="339.018" style="opacity:0.1;fill:#FFFFFF;" width="3.931" height="36.357"/>
			<rect x="174.934" y="339.018" style="opacity:0.1;fill:#FFFFFF;" width="3.93" height="36.357"/>
			<rect x="227.504" y="339.018" style="opacity:0.1;fill:#FFFFFF;" width="3.93" height="36.357"/>
			<rect x="280.074" y="339.018" style="opacity:0.1;fill:#FFFFFF;" width="3.93" height="36.357"/>
			<rect x="332.644" y="339.018" style="opacity:0.1;fill:#FFFFFF;" width="3.93" height="36.357"/>
			<rect x="385.214" y="339.018" style="opacity:0.1;fill:#FFFFFF;" width="3.931" height="36.357"/>
			<rect x="99.447" y="373.413" style="opacity:0.1;fill:#FFFFFF;" width="313.106" height="3.926"/>
			<rect x="99.45" y="409.766" style="opacity:0.1;fill:#FFFFFF;" width="313.1" height="3.931"/>
			<rect x="148.895" y="375.375" style="opacity:0.1;fill:#FFFFFF;" width="3.93" height="36.357"/>
			<rect x="201.465" y="375.375" style="opacity:0.1;fill:#FFFFFF;" width="3.93" height="36.357"/>
			<rect x="254.035" y="375.375" style="opacity:0.1;fill:#FFFFFF;" width="3.93" height="36.357"/>
			<rect x="306.604" y="375.375" style="opacity:0.1;fill:#FFFFFF;" width="3.93" height="36.357"/>
			<rect x="359.174" y="375.375" style="opacity:0.1;fill:#FFFFFF;" width="3.93" height="36.357"/>
			<rect x="99.45" y="409.766" style="opacity:0.1;fill:#FFFFFF;" width="313.1" height="3.931"/>
			<rect x="122.365" y="411.731" style="opacity:0.1;fill:#FFFFFF;" width="3.931" height="1.965"/>
			<rect x="174.934" y="411.731" style="opacity:0.1;fill:#FFFFFF;" width="3.93" height="1.965"/>
			<rect x="227.504" y="411.731" style="opacity:0.1;fill:#FFFFFF;" width="3.93" height="1.965"/>
			<rect x="280.074" y="411.731" style="opacity:0.1;fill:#FFFFFF;" width="3.93" height="1.965"/>
			<rect x="332.644" y="411.731" style="opacity:0.1;fill:#FFFFFF;" width="3.93" height="1.965"/>
			<rect x="385.214" y="411.731" style="opacity:0.1;fill:#FFFFFF;" width="3.931" height="1.965"/>
		</g>
		<g>
			<path style="fill:#484747;" d="M260.259,297.657h-8.262c-20.321,0-36.948,16.626-36.948,36.948v79.299h82.158v-79.299
				C297.207,314.284,280.58,297.657,260.259,297.657z"/>
			<g>
				<polygon style="fill:#484747;" points="189.285,155.189 189.285,173.531 202.454,173.531 202.454,190.563 189.285,190.563 
					189.285,208.905 229.9,208.905 229.9,155.189 				"/>
				<polygon style="fill:#484747;" points="282.1,155.189 282.1,173.531 295.269,173.531 295.269,190.563 282.1,190.563 
					282.1,208.905 322.714,208.905 322.714,155.189 				"/>
			</g>
		</g>
	</g>
</g>
</svg>
