<?xml version="1.0" encoding="iso-8859-1"?>
<!-- Generator: Adobe Illustrator 18.0.0, SVG Export Plug-In . SVG Version: 6.00 Build 0)  -->
<!DOCTYPE svg PUBLIC "-//W3C//DTD SVG 1.1//EN" "http://www.w3.org/Graphics/SVG/1.1/DTD/svg11.dtd">
<svg version="1.1" id="_x31_" xmlns="http://www.w3.org/2000/svg" xmlns:xlink="http://www.w3.org/1999/xlink" x="0px" y="0px"
	 viewBox="0 0 512 512" style="enable-background:new 0 0 512 512;" xml:space="preserve">
<g>
	<rect style="fill:#3C3F44;" width="512" height="512"/>
	<g>
		<polygon style="opacity:0.1;fill:#231815;" points="512,223.795 512,512 272.23,512 167.832,407.605 88.985,328.755 
			407.605,197.17 462.645,174.44 		"/>
		<g>
			<g>
				<polygon style="fill:#F2F2F2;" points="51.67,174.44 51.67,288.075 93.7,330.1 194.88,330.1 257.145,258.5 257.145,174.44 				
					"/>
				<polygon style="fill:#D8292F;" points="108.208,295.08 86.692,273.565 86.692,209.465 222.12,209.465 222.12,245.395 
					178.923,295.08 				"/>
			</g>
			<g>
				<polygon style="fill:#EFEEEF;" points="462.62,174.44 462.62,288.075 420.59,330.1 319.41,330.1 257.145,258.5 257.145,174.44 
									"/>
				<polygon style="fill:#83C3DA;" points="406.085,295.08 427.595,273.565 427.595,209.465 292.165,209.465 292.165,245.395 
					335.37,295.08 				"/>
				<polygon style="opacity:0.16;fill:#231815;" points="89.807,213.355 222.12,213.355 222.12,209.465 86.692,209.465 
					86.692,273.565 89.807,276.68 				"/>
				<polygon style="opacity:0.16;fill:#231815;" points="295.28,213.355 427.595,213.355 427.595,209.465 292.165,209.465 
					292.165,245.395 295.28,248.98 				"/>
			</g>
		</g>
	</g>
</g>
</svg>
