<?xml version="1.0" encoding="iso-8859-1"?>
<!-- Generator: Adobe Illustrator 18.0.0, SVG Export Plug-In . SVG Version: 6.00 Build 0)  -->
<!DOCTYPE svg PUBLIC "-//W3C//DTD SVG 1.1//EN" "http://www.w3.org/Graphics/SVG/1.1/DTD/svg11.dtd">
<svg version="1.1" id="_x32_" xmlns="http://www.w3.org/2000/svg" xmlns:xlink="http://www.w3.org/1999/xlink" x="0px" y="0px"
	 viewBox="0 0 512 512" style="enable-background:new 0 0 512 512;" xml:space="preserve">
<g>
	<rect style="fill:#5D5D5D;" width="512" height="512"/>
	<path style="opacity:0.1;fill:#040000;" d="M512,290.56V512H319.386L208.845,401.46l-39.68-39.68
		c-2.202-3.995-4.096-8.193-5.734-12.596c-6.042-16.23-7.526-32.921-5.069-48.999c0.205-1.535,0.512-3.122,0.768-4.659
		c0.922-4.404,2.099-8.806,3.584-13.056c1.383-3.992,3.072-8.038,5.069-11.828c0.051-0.204,0.154-0.46,0.307-0.614
		c1.075-2.201,2.202-4.301,3.482-6.246c0.922-1.639,1.945-3.175,2.969-4.66c0.41-0.614,0.819-1.177,1.229-1.74
		c2.97-4.199,6.298-8.193,9.831-11.828c0.922-0.921,1.843-1.842,2.816-2.765l-0.614-0.614l-62.925-66.509l-5.12-5.376l68.045-71.885
		h132.045l0.41,0.41l71.475,71.475l0.102,0.102L512,290.56z"/>
	<polygon style="opacity:0.1;fill:#FFFFFF;" points="386.212,325.622 386.212,325.622 386.212,325.622 	"/>
	<g>
		<g>
			<path style="fill:#FCF7DB;" d="M314.756,296.07c1.863,5.834,2.886,12.04,2.886,18.485c0,33.601-27.335,60.936-60.931,60.936
				c-6.446,0-12.654-1.024-18.49-2.886l-8.612,8.611c8.374,3.418,17.513,5.339,27.102,5.339c39.701,0,71.995-32.3,71.995-72
				c0-9.587-1.92-18.725-5.336-27.099L314.756,296.07z"/>
			<path style="fill:#D4D1A9;" d="M195.775,314.555c0-33.596,27.335-60.931,60.936-60.931c27.152,0,50.197,17.862,58.045,42.446
				l8.613-8.614c-10.73-26.299-36.545-44.896-66.658-44.896c-39.7,0-72,32.294-72,71.995c0,30.112,18.599,55.93,44.898,66.661
				l8.612-8.611C213.636,364.756,195.775,341.711,195.775,314.555z"/>
		</g>
		<g>
			<g>
				<path style="fill:#FAF8C5;" d="M348.621,280.371c-1.843-5.069-4.096-9.881-6.758-14.439c-3.584-6.349-7.833-12.236-12.646-17.51
					c-1.843-1.997-3.789-3.943-5.786-5.735c-0.154-0.255-0.358-0.409-0.512-0.511c-0.717-0.716-1.485-1.383-2.202-1.996
					c-4.659-4.045-9.677-7.579-14.848-10.65c-2.56-1.485-5.223-2.867-7.936-4.045c-1.178-0.615-2.407-1.126-3.635-1.639
					c-0.307-0.205-0.563-0.306-0.87-0.359c-2.151-0.921-4.301-1.689-6.554-2.458c-1.741-0.563-3.481-1.126-5.273-1.587
					c-5.581-1.484-11.315-2.56-17.101-3.071c-14.08-1.229-28.723,0.564-42.854,5.836c-2.663,0.974-5.273,2.049-7.783,3.329
					c-9.267,4.249-17.562,9.932-24.781,16.64c-0.205,0.205-0.461,0.409-0.666,0.614c-0.973,0.923-1.894,1.844-2.816,2.765
					c-3.533,3.635-6.861,7.629-9.831,11.828c-0.409,0.563-0.819,1.126-1.229,1.74c-1.024,1.485-2.048,3.021-2.969,4.66
					c-1.28,1.945-2.407,4.045-3.482,6.246c-0.154,0.154-0.256,0.41-0.307,0.614c-1.997,3.79-3.686,7.835-5.069,11.828
					c-1.485,4.25-2.662,8.652-3.584,13.056c-0.256,1.536-0.563,3.124-0.768,4.659c-2.458,16.078-0.973,32.769,5.069,48.999
					c1.639,4.404,3.533,8.601,5.734,12.596c9.267,17.203,23.245,30.77,39.68,39.68c24.217,13.209,53.811,16.23,81.613,5.939
					C341.453,388.402,367.616,331.469,348.621,280.371z M321.024,289.793c0.102,0.255,0.205,0.46,0.256,0.716
					c13.363,35.994-5.069,76.186-40.96,89.497c-16.538,6.144-33.946,5.633-49.203-0.256c-18.074-6.86-33.126-21.196-40.345-40.704
					c-3.123-8.244-4.455-16.691-4.403-24.884c0.154-5.324,0.768-10.649,2.048-15.769c0.205-0.921,0.41-1.844,0.717-2.765
					c1.178-4.148,2.714-8.191,4.71-11.929c0.819-1.844,1.792-3.585,2.867-5.378c0.307-0.511,0.614-1.075,0.973-1.586
					c1.075-1.587,2.099-3.073,3.277-4.506c1.638-2.201,3.482-4.249,5.427-6.246c0.614-0.665,1.28-1.28,1.946-1.894
					c5.12-4.915,11.162-9.011,17.818-12.186c0.051-0.051,0.051-0.051,0.102-0.051c1.792-0.87,3.635-1.637,5.529-2.355
					c10.035-3.686,20.224-4.966,30.259-4.045h0.051c2.765,0.205,5.427,0.666,8.141,1.128c1.843,0.46,3.584,0.819,5.376,1.381
					c2.509,0.717,4.915,1.639,7.373,2.765c0.871,0.307,1.69,0.666,2.56,1.024v0.051c3.072,1.383,5.991,3.021,8.807,4.916
					c3.277,2.099,6.349,4.556,9.216,7.219c0.461,0.461,0.922,0.87,1.383,1.331c1.229,1.229,2.406,2.458,3.533,3.789
					c4.762,5.376,8.755,11.622,11.725,18.585C320.461,288.307,320.768,289.075,321.024,289.793z"/>
				<path style="fill:#FAF8C5;" d="M337.715,284.416c-1.28-3.379-2.713-6.707-4.454-9.881c-0.461-0.974-0.973-1.895-1.536-2.816
					c-1.433-2.56-3.021-5.069-4.71-7.424c-1.997-2.816-4.096-5.479-6.349-7.936c-1.69-1.844-3.431-3.584-5.171-5.171
					c-0.819-0.82-1.587-1.536-2.407-2.202c-2.867-2.458-5.888-4.761-9.011-6.809c-1.331-0.871-2.662-1.741-4.045-2.509
					c-2.355-1.382-4.71-2.611-7.066-3.686c-0.973-0.461-1.997-0.921-2.97-1.331h-0.154l-1.024-0.461
					c-1.894-0.819-3.737-1.485-5.581-2.099c-1.536-0.512-3.021-0.923-4.711-1.382c-5.018-1.331-10.086-2.253-15.002-2.714
					c-2.509-0.205-5.017-0.359-7.526-0.359c-10.342,0-20.531,1.844-30.311,5.479c-2.355,0.87-4.659,1.844-6.912,2.919
					c-3.789,1.791-7.424,3.84-10.854,6.144c-4.045,2.663-7.885,5.734-11.469,9.216c-0.87,0.716-1.69,1.535-2.509,2.355
					c-0.871,0.87-1.741,1.792-2.56,2.765c-2.151,2.355-4.198,4.915-6.041,7.526l-1.229,1.689c-0.819,1.23-1.638,2.51-2.406,3.84
					l-0.358,0.512c-0.922,1.434-1.741,2.97-2.509,4.505l-0.051,0.205l-0.666,1.28c-1.639,3.124-3.123,6.554-4.403,10.19
					c-1.331,3.992-2.407,7.884-3.123,11.467c-0.256,1.382-0.512,2.765-0.717,4.25c-2.253,14.592-0.717,29.132,4.454,43.163
					c12.595,33.945,45.517,56.729,81.817,56.729c10.342,0,20.48-1.791,30.259-5.427C331.417,379.7,354.406,329.473,337.715,284.416z
					 M284.365,390.962c-9.113,3.38-18.637,5.12-28.262,5.12c-33.894,0-64.512-21.299-76.288-52.94
					c-3.43-9.216-5.171-18.995-5.069-29.286c0.102-6.246,0.87-12.289,2.304-17.92c0.205-1.28,0.512-2.509,0.871-3.481
					c1.331-4.915,3.174-9.575,5.427-13.825c1.075-2.406,2.304-4.505,3.174-5.939c0.41-0.819,0.973-1.69,1.485-2.458
					c0.102-0.103,0.154-0.256,0.256-0.359c1.127-1.69,2.253-3.328,3.328-4.556c1.229-1.741,2.56-3.329,3.84-4.711
					c0.922-1.024,1.792-1.945,2.611-2.765c0.768-0.767,1.536-1.535,2.304-2.253c5.632-5.325,12.083-9.83,19.098-13.414
					c0.614-0.307,1.229-0.615,1.843-0.871c2.099-1.024,4.301-1.945,6.502-2.764c9.113-3.329,18.534-5.019,27.955-5.019
					c2.355,0,4.71,0.102,7.065,0.307h0.051c3.328,0.205,6.451,0.769,9.319,1.23l0.461,0.101l1.792,0.41
					c1.638,0.41,3.226,0.819,4.301,1.177c2.918,0.819,5.888,1.894,8.55,3.124c1.075,0.409,2.15,0.87,3.226,1.33
					c0.614,0.307,1.28,0.666,1.946,0.974c2.816,1.383,5.581,2.969,8.243,4.761c3.738,2.355,7.322,5.223,10.803,8.5
					c0.564,0.511,1.127,1.024,1.69,1.586c1.485,1.485,2.918,2.97,3.994,4.301c0.973,1.126,1.945,2.253,2.918,3.43
					c0.922,1.229,1.843,2.457,2.714,3.737c2.304,3.226,4.301,6.708,6.144,10.394c0.768,1.536,1.485,3.073,2.15,4.659
					c0,0,0.922,2.408,1.126,2.919C347.802,328.5,326.349,375.348,284.365,390.962z"/>
			</g>
			<path style="fill:#D4D1A9;" d="M341.862,265.932l-8.602,8.603l-4.301,4.351l-6.503,6.503l-2.253,2.253
				c-2.97-6.962-6.963-13.209-11.725-18.585c-1.127-1.331-2.304-2.56-3.533-3.789c-0.461-0.461-0.922-0.87-1.383-1.331
				c-2.867-2.663-5.939-5.12-9.216-7.219c-2.816-1.895-5.734-3.534-8.807-4.916v-0.051c-0.87-0.357-1.689-0.716-2.56-1.024
				c-2.457-1.126-4.864-2.048-7.373-2.765c-1.792-0.563-3.533-0.921-5.376-1.381c-2.713-0.461-5.376-0.923-8.141-1.128h-0.051
				c-10.035-0.921-20.224,0.359-30.259,4.045c-1.894,0.717-3.738,1.485-5.529,2.355c-0.051,0-0.051,0-0.102,0.051
				c-6.656,3.175-12.698,7.271-17.818,12.186c-0.666,0.614-1.331,1.229-1.946,1.894c-1.946,1.997-3.789,4.045-5.427,6.246
				c-1.178,1.434-2.202,2.919-3.277,4.506c-0.358,0.511-0.666,1.075-0.973,1.586l-1.383-1.381l-19.558-19.559
				c2.97-4.199,6.298-8.193,9.831-11.828c0.922-0.921,1.843-1.842,2.816-2.765c0.205-0.205,0.461-0.409,0.666-0.614
				c7.219-6.708,15.513-12.391,24.781-16.64c2.509-1.28,5.12-2.355,7.783-3.329c14.131-5.273,28.774-7.065,42.854-5.836
				c5.786,0.511,11.52,1.587,17.101,3.071c1.792,0.461,3.533,1.025,5.273,1.587c2.253,0.769,4.403,1.536,6.554,2.458
				c0.307,0.052,0.563,0.154,0.87,0.359c1.229,0.512,2.458,1.024,3.635,1.639c2.713,1.178,5.376,2.56,7.936,4.045
				c5.171,3.071,10.189,6.605,14.848,10.65c0.717,0.614,1.485,1.28,2.202,1.996c0.154,0.102,0.358,0.256,0.512,0.511
				c1.997,1.792,3.943,3.738,5.786,5.735C334.029,253.696,338.278,259.584,341.862,265.932z"/>
			<path style="fill:#D4D1A9;" d="M322.837,268.479c-1.748-2.5-3.638-4.891-5.66-7.157c-1.076-1.31-2.483-2.796-3.963-4.276
				c-3.997-3.94-8.188-7.322-12.521-10.124c-4.305-2.847-8.848-5.244-13.403-7.049c-2.648-1.213-5.62-2.312-8.575-3.137
				c-1.053-0.364-2.642-0.757-4.293-1.15l-1.793-0.433l-0.433-0.074c-2.904-0.501-6.024-1.036-9.327-1.253h-0.046
				c-2.352-0.211-4.709-0.319-7.072-0.319c-9.452,0-18.864,1.691-27.962,5.028c-11.251,4.191-21.517,10.858-29.761,19.308
				c-0.786,0.809-1.663,1.731-2.574,2.744l-4.088-4.1c0.837-0.934,1.691-1.845,2.568-2.727c9.03-9.247,19.706-16.17,31.754-20.623
				c9.776-3.638,19.974-5.477,30.325-5.477c2.511,0,5.011,0.114,7.487,0.324c4.931,0.45,10.004,1.367,15.043,2.733
				c1.685,0.433,3.177,0.883,4.675,1.384c1.839,0.626,3.718,1.281,5.603,2.09l1.042,0.45l0.114,0.023
				c3.314,1.372,6.69,3.046,10.038,4.982c4.606,2.693,9.03,5.848,13.084,9.344c2.551,2.209,5.096,4.68,7.544,7.345
				c2.255,2.477,4.39,5.136,6.383,7.949L322.837,268.479z"/>
		</g>
		<g>
			<polygon style="fill:#D97C96;" points="255.846,314.777 214.528,270.695 208.384,264.141 208.333,264.09 206.95,262.605 
				202.906,258.304 200.346,255.59 196.454,251.393 188.467,242.841 187.802,242.176 221.645,242.176 225.229,249.856 
				226.15,251.904 226.202,251.955 229.939,259.84 237.209,275.251 237.261,275.302 			"/>
			<polygon style="fill:#E68DAB;" points="323.942,98.406 323.942,98.457 323.584,98.816 323.533,98.816 323.482,98.868 
				321.946,100.505 289.894,134.349 258.457,101.171 256.205,98.816 255.846,98.406 			"/>
			<polygon style="fill:#EE88A9;" points="255.846,98.406 255.539,98.816 253.235,101.171 221.849,134.349 188.16,98.868 
				188.16,98.816 187.802,98.406 			"/>
			<polygon style="fill:#C76E8C;" points="323.907,242.198 323.382,242.723 303.5,264.004 255.865,314.787 274.406,275.374 
				274.464,275.314 285.542,251.76 290.032,242.198 			"/>
			<rect x="323.904" y="242.192" style="fill:#F0ADCC;" width="0" height="0"/>
			<polygon style="fill:#B46483;" points="323.904,242.192 301.298,218.308 290.05,242.192 323.904,242.192 323.904,242.192 			"/>
			<polygon style="fill:#EC99B5;" points="187.822,242.192 221.676,242.192 210.428,218.308 			"/>
			<polygon style="fill:#D97C96;" points="391.948,170.309 391.073,171.241 391.015,171.3 386.817,175.731 323.907,242.198 
				314.636,232.403 301.284,218.294 301.343,218.235 316.385,186.283 322.332,173.573 322.391,173.573 323.44,171.241 
				323.907,170.309 			"/>
			<polygon style="fill:#C76E8C;" points="391.948,170.309 391.073,171.241 391.015,171.3 386.817,175.731 323.907,242.198 
				314.636,232.403 301.284,218.294 301.343,218.235 316.385,186.283 322.332,173.573 322.391,173.573 323.44,171.241 
				323.907,170.309 			"/>
			<polygon style="fill:#D97C96;" points="210.432,218.318 197.069,232.398 187.802,242.176 124.877,175.667 119.757,170.291 
				187.802,170.291 188.211,171.212 188.211,171.264 189.337,173.568 189.337,173.62 189.389,173.62 			"/>
			<polygon style="fill:#F09FBD;" points="210.432,218.318 197.069,232.398 187.802,242.176 124.877,175.667 119.757,170.291 
				187.802,170.291 188.211,171.212 188.211,171.264 189.337,173.568 189.337,173.62 189.389,173.62 			"/>
			
				<rect x="308.434" y="134.363" transform="matrix(0.6874 0.7263 -0.7263 0.6874 209.4634 -217.9475)" style="opacity:0.5;fill:#F2CBE0;" width="98.981" height="0"/>
			
				<rect x="308.434" y="134.363" transform="matrix(0.6874 0.7263 -0.7263 0.6874 209.4634 -217.9475)" style="opacity:0.53;fill:#F9E8F1;" width="98.981" height="0"/>
			<polygon style="fill:#EE88A9;" points="323.904,170.306 391.945,170.306 323.904,98.42 289.883,134.363 			"/>
			<polygon style="opacity:0.5;fill:#F2CBE0;" points="323.904,170.306 391.945,170.306 323.904,98.42 289.883,134.363 			"/>
			<polygon style="fill:#C87390;" points="323.904,170.306 391.945,170.306 323.904,98.42 289.883,134.363 			"/>
			<polygon style="fill:#EE88A9;" points="221.849,134.349 221.849,134.4 187.802,170.291 119.757,170.291 187.802,98.406 
				188.16,98.816 188.16,98.868 			"/>
			<polygon style="opacity:0.5;fill:#F2CBE0;" points="221.849,134.349 221.849,134.4 187.802,170.291 119.757,170.291 
				187.802,98.406 188.16,98.816 188.16,98.868 			"/>
			<polygon style="opacity:0.3;fill:#F9E8F1;" points="221.849,134.349 221.849,134.4 187.802,170.291 119.757,170.291 
				187.802,98.406 188.16,98.816 188.16,98.868 			"/>
			<polygon style="fill:#EE88A9;" points="255.863,170.306 289.883,134.363 255.863,98.42 221.842,134.363 			"/>
			<polygon style="opacity:0.1;fill:#FFFFFF;" points="255.863,170.306 289.883,134.363 255.863,98.42 221.842,134.363 			"/>
			<polygon style="fill:#EE88A9;" points="221.676,242.192 255.863,314.785 255.863,314.785 290.05,242.192 			"/>
			<polygon style="opacity:0.1;fill:#FFFFFF;" points="221.676,242.192 255.863,314.785 255.863,314.785 290.05,242.192 			"/>
			<polygon style="fill:#F0ADCC;" points="255.863,170.306 210.428,218.308 221.676,242.192 290.05,242.192 301.298,218.308 			"/>
			<polygon style="opacity:0.1;fill:#FFFFFF;" points="255.863,170.306 210.428,218.308 221.676,242.192 290.05,242.192 
				301.298,218.308 			"/>
			<polygon style="fill:#EE88A9;" points="323.904,170.306 255.863,170.306 301.298,218.308 			"/>
			<polygon style="opacity:0.5;fill:#F2CBE0;" points="323.904,170.306 255.863,170.306 301.298,218.308 			"/>
			<polygon style="fill:#C87390;" points="323.83,170.298 255.786,170.315 301.375,218.303 			"/>
			<polygon style="fill:#EE88A9;" points="187.822,170.306 210.428,218.308 255.863,170.306 			"/>
			<polygon style="opacity:0.5;fill:#F2CBE0;" points="187.822,170.306 210.428,218.308 255.863,170.306 			"/>
			<polygon style="fill:#EE88A9;" points="187.822,170.306 210.428,218.308 255.863,170.306 			"/>
			<polygon style="fill:#EE88A9;" points="289.883,134.363 255.863,170.306 323.904,170.306 			"/>
			<polygon style="opacity:0.5;fill:#F2CBE0;" points="289.883,134.363 255.863,170.306 323.904,170.306 			"/>
			<polygon style="opacity:0.53;fill:#F9E8F1;" points="289.883,134.363 255.863,170.306 323.904,170.306 			"/>
			<polygon style="fill:#D97C96;" points="289.883,134.363 255.863,170.306 323.904,170.306 			"/>
			<polygon style="fill:#EE88A9;" points="221.842,134.363 187.822,170.306 255.863,170.306 			"/>
			<polygon style="opacity:0.5;fill:#F2CBE0;" points="221.842,134.363 187.822,170.306 255.863,170.306 			"/>
			<polygon style="opacity:0.53;fill:#F9E8F1;" points="221.842,134.363 187.822,170.306 255.863,170.306 			"/>
			<polygon style="opacity:0.4;fill:#FFFFFF;" points="221.842,134.363 187.822,170.306 255.863,170.306 			"/>
			<polygon style="opacity:0.48;fill:#FFFFFF;" points="255.863,98.804 187.822,98.804 221.842,101.18 289.883,101.18 
				323.904,98.804 			"/>
			<polygon style="opacity:0.48;fill:#FFFFFF;" points="256.781,171.219 121.337,171.221 189.059,173.595 324.502,173.593 
				392.224,171.217 			"/>
		</g>
	</g>
</g>
</svg>
