<?xml version="1.0" encoding="iso-8859-1"?>
<!-- Generator: Adobe Illustrator 18.0.0, SVG Export Plug-In . SVG Version: 6.00 Build 0)  -->
<!DOCTYPE svg PUBLIC "-//W3C//DTD SVG 1.1//EN" "http://www.w3.org/Graphics/SVG/1.1/DTD/svg11.dtd">
<svg version="1.1" id="_x32_" xmlns="http://www.w3.org/2000/svg" xmlns:xlink="http://www.w3.org/1999/xlink" x="0px" y="0px"
	 viewBox="0 0 512 512" style="enable-background:new 0 0 512 512;" xml:space="preserve">
<g>
	<rect style="fill:#F6B597;" width="512" height="512"/>
	<polygon style="opacity:0.1;fill:#231815;" points="512,278.118 512,512 193.331,512 113.459,432.128 101.325,419.994 
		65.485,384.154 74.291,375.347 101.99,361.779 76.595,336.384 85.402,327.578 90.163,325.222 78.285,313.344 87.091,304.538 
		92.262,301.978 80.589,290.304 89.395,281.498 89.754,281.293 78.285,269.824 42.445,233.984 51.251,225.178 256,124.672 
		457.421,223.539 	"/>
	<g>
		<polygon style="fill:#191A32;" points="256,124.672 256,382.566 176.282,367.821 127.744,358.81 127.744,277.914 92.57,259.994 
			78.438,252.774 43.418,234.957 37.478,231.936 51.251,225.178 		"/>
		<polygon style="fill:#282D41;" points="474.522,231.936 468.736,234.854 384.256,277.914 384.256,358.81 256,382.566 256,124.672 
			457.421,223.539 		"/>
		<polygon style="fill:#4B4C67;" points="256,124.672 256,382.566 176.282,367.821 127.744,358.81 127.744,277.914 92.57,259.994 
			78.438,252.774 43.418,234.957 37.478,231.936 51.251,225.178 		"/>
		<polygon style="fill:#404258;" points="474.522,231.936 468.736,234.854 384.256,277.914 384.256,358.81 256,382.566 256,124.672 
			457.421,223.539 		"/>
		<path style="fill:#F3DC6F;" d="M105.604,387.354H63.246v-46.389c0-11.695,9.492-21.187,21.187-21.187
			c11.697,0,21.171,9.492,21.171,21.187V387.354z"/>
		<polygon style="fill:#F3DC6F;" points="78.436,250.71 78.436,260.98 78.29,260.98 78.29,332.323 90.398,332.323 90.398,260.98 
			255.593,186.788 255.593,171.548 		"/>
		<path style="fill:#F3DC6F;" d="M273.243,177.864c0,6.11-8.366,11.069-18.68,11.069c-10.315,0-18.682-4.96-18.682-11.069
			c0-6.109,8.368-11.053,18.682-11.053C264.878,166.812,273.243,171.755,273.243,177.864z"/>
	</g>
</g>
</svg>
