<?xml version="1.0" encoding="iso-8859-1"?>
<!-- Generator: Adobe Illustrator 18.0.0, SVG Export Plug-In . SVG Version: 6.00 Build 0)  -->
<!DOCTYPE svg PUBLIC "-//W3C//DTD SVG 1.1//EN" "http://www.w3.org/Graphics/SVG/1.1/DTD/svg11.dtd">
<svg version="1.1" id="_x32_" xmlns="http://www.w3.org/2000/svg" xmlns:xlink="http://www.w3.org/1999/xlink" x="0px" y="0px"
	 viewBox="0 0 512 512" style="enable-background:new 0 0 512 512;" xml:space="preserve">
<g>
	<rect style="fill:#8BC888;" width="512" height="512"/>
	<path style="opacity:0.1;fill:#040000;" d="M512,218.47V512H240.384L106.035,377.651c-6.042-22.374,8.909-48.282,35.738-60.007
		c11.622-5.069,23.757-6.656,34.714-5.222V163.123l35.686-35.686l3.687-0.461l152.115-18.586l30.259-3.686L512,218.47z"/>
	<g>
		<g>
			<polygon style="fill:#6B846A;" points="215.859,126.976 215.859,350.823 176.487,350.823 176.487,131.738 212.173,127.437 			"/>
			<polygon style="fill:#C8E6E0;" points="407.347,103.577 407.347,158.362 367.974,163.174 215.859,181.709 176.487,186.522 
				176.487,131.738 212.173,127.437 215.859,126.976 367.974,108.39 398.234,104.704 			"/>
			<polygon style="fill:#E5ECA4;" points="407.347,174.848 407.347,188.518 367.974,193.331 215.859,211.866 176.487,216.678 
				176.487,203.008 215.859,198.195 367.974,179.61 			"/>
			<polygon style="fill:#D57999;" points="407.347,103.577 407.347,313.651 367.974,313.651 367.974,108.39 398.234,104.704 			"/>
			<path style="fill:#FCEDC2;" d="M178.79,402.688c-15.309,6.656-31.437,7.322-44.697,3.021
				c-11.827-3.891-21.453-11.673-26.214-22.733c-0.768-1.741-1.382-3.533-1.843-5.325c-6.042-22.374,8.909-48.282,35.738-60.007
				c11.622-5.069,23.757-6.656,34.714-5.222c16.281,2.099,30.106,10.906,36.198,24.934c1.895,4.352,2.918,8.857,3.123,13.466
				C216.781,371.098,202.342,392.397,178.79,402.688z"/>
			
				<ellipse transform="matrix(0.9168 -0.3994 0.3994 0.9168 -98.7106 167.1315)" style="fill:#B0DDDF;" cx="351.731" cy="320.454" rx="57.159" ry="46.359"/>
		</g>
		<g>
			<path style="opacity:0.1;fill:#040000;" d="M134.093,404.608c13.261,4.301,29.389,3.635,44.697-3.021
				c23.552-10.291,37.991-31.591,37.018-51.866h0.051v-54.656l-99.237,99.237C121.428,398.901,127.385,402.401,134.093,404.608z"/>
			<path style="opacity:0.1;fill:#040000;" d="M346.198,164.727l21.776-2.653v16.435l-40.508,4.949l-15.61,15.61l56.117-6.838
				v79.427c-10.986-1.437-23.09,0.111-34.757,5.194c-28.941,12.607-44.114,41.856-33.889,65.329
				c10.225,23.473,41.976,32.282,70.917,19.675c22.601-9.845,36.739-29.837,37.008-49.304h0.095V187.417v-13.67V157.26v-53.683
				L346.198,164.727z"/>
		</g>
	</g>
</g>
</svg>
