<?xml version="1.0" encoding="iso-8859-1"?>
<!-- Generator: Adobe Illustrator 18.0.0, SVG Export Plug-In . SVG Version: 6.00 Build 0)  -->
<!DOCTYPE svg PUBLIC "-//W3C//DTD SVG 1.1//EN" "http://www.w3.org/Graphics/SVG/1.1/DTD/svg11.dtd">
<svg version="1.1" id="_x32_" xmlns="http://www.w3.org/2000/svg" xmlns:xlink="http://www.w3.org/1999/xlink" x="0px" y="0px"
	 viewBox="0 0 512 512" style="enable-background:new 0 0 512 512;" xml:space="preserve">
<g>
	<rect style="fill:#D7DE98;" width="512" height="512"/>
	<polygon style="opacity:0.1;fill:#040000;" points="512,334.182 512,512 239.462,512 93.593,366.182 84.326,356.915 
		84.326,208.128 203.673,208.128 203.673,217.446 230.246,217.446 301.158,145.818 323.635,145.818 426.752,248.935 	"/>
	<g>
		<path style="fill:#040000;" d="M236.049,336.168"/>
		<polygon style="fill:#FDFEFE;" points="427.673,241.408 426.752,248.935 415.283,339.61 390.144,364.749 258.867,364.749 
			230.246,336.179 198.4,336.179 198.4,217.446 230.246,217.446 301.158,145.818 334.233,145.818 334.233,163.789 321.689,176.333 
			321.689,215.808 402.073,215.808 		"/>
		<rect x="197.017" y="217.446" style="opacity:0.07;fill:#040000;" width="25.19" height="118.733"/>
		<polygon style="opacity:0.07;fill:#040000;" points="334.182,145.818 334.182,163.789 321.689,176.333 321.689,215.808 
			298.547,215.808 298.547,176.333 311.04,163.789 311.04,145.818 		"/>
		<polygon style="opacity:0.07;fill:#040000;" points="427.658,241.414 415.255,339.605 390.121,364.74 366.973,364.74 
			392.107,339.605 404.51,241.414 378.921,215.821 402.069,215.821 		"/>
		<rect x="84.326" y="208.128" style="fill:#4B70A7;" width="119.347" height="158.054"/>
	</g>
	<polygon style="opacity:0.02;fill:#040000;" points="321.716,215.091 321.716,189.594 145.844,365.466 203.7,365.466 
		203.7,335.462 222.234,335.462 230.273,335.462 258.894,364.032 390.17,364.032 415.31,338.893 426.779,248.218 427.7,240.691 
		402.1,215.091 	"/>
</g>
</svg>
