<?xml version="1.0" encoding="iso-8859-1"?>
<!-- Generator: Adobe Illustrator 18.0.0, SVG Export Plug-In . SVG Version: 6.00 Build 0)  -->
<!DOCTYPE svg PUBLIC "-//W3C//DTD SVG 1.1//EN" "http://www.w3.org/Graphics/SVG/1.1/DTD/svg11.dtd">
<svg version="1.1" id="_x32_" xmlns="http://www.w3.org/2000/svg" xmlns:xlink="http://www.w3.org/1999/xlink" x="0px" y="0px"
	 viewBox="0 0 512 512" style="enable-background:new 0 0 512 512;" xml:space="preserve">
<g>
	<rect style="fill:#EBE5D3;" width="512" height="512"/>
	<path style="opacity:0.1;fill:#040000;" d="M512,184.269V512H184.986L50.432,377.446l-17.459-17.459
		c-0.614-2.048-0.922-4.25-0.922-6.503v-194.97c0-13.67,11.161-24.832,24.832-24.832h398.233c2.56,0,5.069,0.41,7.373,1.126
		c0.051,0,0.103,0.051,0.103,0.051l16.179,16.179c0.051,0.051,0.051,0.102,0.051,0.102L512,184.269z"/>
	<g>
		<g>
			<g>
				<g>
					<path style="fill:#A54152;" d="M479.949,158.515v194.97c0,13.67-11.161,24.832-24.832,24.832H56.883
						c-2.253,0-4.403-0.307-6.451-0.871c-8.499-2.253-15.207-8.96-17.459-17.459c-0.614-2.048-0.922-4.25-0.922-6.503v-194.97
						c0-13.67,11.161-24.832,24.832-24.832h398.233c2.56,0,5.069,0.41,7.373,1.126c0.051,0,0.103,0.051,0.103,0.051
						c7.68,2.407,13.773,8.499,16.179,16.179c0.051,0.051,0.051,0.102,0.051,0.102C479.539,153.497,479.949,155.955,479.949,158.515
						z"/>
					<path style="fill:#FCF4D1;" d="M441.693,244.632H281.065v-77.261c0-6.39-5.228-11.619-11.619-11.619H70.307
						c-6.39,0-11.619,5.228-11.619,11.619v174.503c0,6.39,5.228,11.619,11.619,11.619h71.654h127.486h172.247
						c6.394,0,11.616-5.223,11.616-11.616v-85.628C453.31,249.854,448.087,244.632,441.693,244.632z"/>
					<g>
						<rect x="76.343" y="169.359" style="fill:#4E4C4B;" width="39.961" height="39.961"/>
						<g>
							<path style="fill:#FFFFFF;" d="M99.84,178.227c0.205-0.563,0.461-0.973,0.819-1.229c0.512-0.358,1.126-0.512,1.946-0.512
								h0.922v-0.973H89.139v0.973h0.87c0.819,0,1.434,0.154,1.843,0.461c0.461,0.358,0.768,0.768,0.922,1.177
								c0.154,0.461,0.256,1.536,0.256,3.328v15.769c0,1.741-0.103,2.816-0.256,3.226c-0.153,0.614-0.461,0.973-0.819,1.229
								c-0.461,0.358-1.127,0.563-1.946,0.563h-0.87v0.922h14.387v-0.922h-0.922c-0.768,0-1.383-0.205-1.843-0.512
								c-0.461-0.307-0.768-0.717-0.922-1.178c-0.153-0.41-0.205-1.536-0.205-3.328v-15.769
								C99.635,179.712,99.687,178.637,99.84,178.227z"/>
						</g>
					</g>
					<polygon style="opacity:0.5;fill:#90756A;" points="58.689,311.698 130.344,311.698 281.062,311.698 453.31,311.698 
						453.31,306.186 281.062,306.186 130.344,306.186 58.689,306.186 					"/>
					<polygon style="opacity:0.5;fill:#90756A;" points="58.689,322.722 130.344,322.722 281.062,322.722 453.31,322.722 
						453.31,317.21 281.062,317.21 130.344,317.21 58.689,317.21 					"/>
					<path style="fill:#9D4545;" d="M119.914,336.017c-5.889,0-10.679-4.791-10.679-10.679V306.39H90.287
						c-5.889,0-10.679-4.791-10.679-10.679v-28.249c0-5.889,4.791-10.679,10.679-10.679h18.947v-18.947
						c0-5.889,4.791-10.679,10.679-10.679h28.249c5.889,0,10.679,4.791,10.679,10.679v18.947h18.947
						c5.889,0,10.679,4.791,10.679,10.679v28.249c0,5.889-4.791,10.679-10.679,10.679h-18.947v18.947
						c0,5.889-4.791,10.679-10.679,10.679H119.914z"/>
					<g>
						<path style="fill:#32302F;" d="M177.789,262.295H153.33v-24.459c0-2.842-2.325-5.168-5.168-5.168h-28.249
							c-2.842,0-5.167,2.325-5.167,5.168v24.459H90.287c-2.842,0-5.167,2.325-5.167,5.167v28.249c0,2.842,2.325,5.167,5.167,5.167
							h24.459v24.459c0,2.842,2.325,5.167,5.167,5.167h28.249c2.842,0,5.168-2.325,5.168-5.167v-24.459h24.459
							c2.842,0,5.168-2.325,5.168-5.167v-28.249C182.957,264.62,180.631,262.295,177.789,262.295z"/>
						<circle style="opacity:0.5;fill:#4E4C4B;" cx="134.038" cy="281.587" r="18.086"/>
					</g>
					<g>
						<circle style="fill:#A13230;" cx="349.756" cy="311.854" r="24.795"/>
						<circle style="fill:#32302F;" cx="349.756" cy="311.854" r="19.742"/>
						<circle style="fill:#A13230;" cx="408.32" cy="311.854" r="24.795"/>
						<circle style="fill:#32302F;" cx="408.32" cy="311.854" r="19.742"/>
					</g>
					<g style="opacity:0.5;">
						<path style="fill:#4E4C4B;" d="M214.938,276.326c-0.102-0.256-0.205-0.461-0.41-0.666c-0.154-0.153-0.358-0.256-0.563-0.358
							c-0.205-0.051-0.461-0.153-0.819-0.205l-0.819-0.103c-0.154-0.051-0.307-0.051-0.41-0.102
							c-0.103-0.051-0.205-0.102-0.256-0.205c-0.102-0.051-0.154-0.153-0.154-0.205c-0.051-0.102-0.051-0.205-0.051-0.256
							c0-0.256,0.102-0.461,0.256-0.666c0.205-0.154,0.461-0.256,0.819-0.256c0.256,0,0.512,0,0.768,0.102
							c0.256,0.051,0.512,0.154,0.717,0.358l0.871-0.87c-0.307-0.256-0.666-0.512-1.024-0.614c-0.358-0.154-0.768-0.205-1.28-0.205
							c-0.41,0-0.717,0.051-1.024,0.153c-0.307,0.103-0.563,0.256-0.819,0.461c-0.205,0.205-0.359,0.409-0.461,0.666
							c-0.103,0.307-0.153,0.563-0.153,0.87c0,0.614,0.153,1.126,0.461,1.433c0.205,0.154,0.358,0.256,0.614,0.358
							c0.205,0.103,0.461,0.205,0.768,0.205l0.87,0.153c0.205,0.051,0.307,0.051,0.41,0.103c0.103,0,0.154,0.051,0.256,0.153
							c0.154,0.154,0.205,0.307,0.205,0.564c0,0.307-0.102,0.512-0.307,0.665c-0.205,0.154-0.563,0.256-0.973,0.256
							c-0.307,0-0.614-0.051-0.922-0.154c-0.307-0.102-0.563-0.256-0.768-0.461l-0.922,0.922c0.358,0.307,0.717,0.563,1.178,0.717
							c0.41,0.154,0.87,0.205,1.433,0.205c0.358,0,0.717-0.051,1.024-0.154c0.358-0.102,0.614-0.256,0.871-0.409
							c0.205-0.205,0.409-0.41,0.563-0.666c0.102-0.307,0.205-0.614,0.205-0.922C215.091,276.838,215.04,276.582,214.938,276.326z"
							/>
						<path style="fill:#4E4C4B;" d="M221.082,273.408v-1.28h-4.71v7.168h4.71v-1.28h-3.328v-1.69h2.816v-1.28h-2.816v-1.638
							H221.082z"/>
						<path style="fill:#4E4C4B;" d="M223.847,278.016v-5.888h-1.382v7.168h4.608v-1.28H223.847z"/>
						<path style="fill:#4E4C4B;" d="M232.909,273.408v-1.28h-4.71v7.168h4.71v-1.28h-3.328v-1.69h2.816v-1.28h-2.816v-1.638
							H232.909z"/>
						<path style="fill:#4E4C4B;" d="M237.466,277.811c-0.205,0.205-0.461,0.307-0.819,0.307c-0.154,0-0.358-0.051-0.512-0.103
							c-0.154-0.103-0.256-0.154-0.359-0.307c-0.051-0.051-0.102-0.154-0.153-0.205c-0.051-0.102-0.102-0.256-0.102-0.41
							c-0.051-0.102-0.051-0.307-0.051-0.512v-0.051c-0.051-0.256-0.051-0.461-0.051-0.819c0-0.359,0-0.614,0.051-0.819
							c0-0.256,0-0.41,0.051-0.563c0-0.154,0.051-0.307,0.102-0.358c0.051-0.103,0.103-0.205,0.153-0.256
							c0.102-0.102,0.205-0.205,0.359-0.307c0.154-0.051,0.358-0.102,0.512-0.102c0.358,0,0.614,0.102,0.819,0.307
							c0.154,0.154,0.256,0.359,0.359,0.563c0,0.051,0.051,0.103,0.051,0.154h1.383c-0.051-0.461-0.205-0.819-0.461-1.126
							c-0.051-0.205-0.205-0.41-0.41-0.563c-0.461-0.358-1.075-0.563-1.741-0.563c-0.41,0-0.768,0.051-1.075,0.205
							c-0.307,0.153-0.563,0.307-0.819,0.563c-0.205,0.154-0.307,0.358-0.41,0.563c-0.102,0.205-0.154,0.41-0.205,0.614
							c-0.051,0.256-0.102,0.512-0.102,0.768v1.843c0,0.256,0.051,0.512,0.102,0.768c0.051,0.102,0.051,0.256,0.102,0.358
							c0.051,0.102,0.051,0.205,0.102,0.256c0.103,0.205,0.205,0.41,0.41,0.563c0.256,0.256,0.512,0.461,0.819,0.563
							c0.307,0.154,0.666,0.205,1.075,0.205c0.666,0,1.28-0.205,1.741-0.563c0.461-0.41,0.768-0.922,0.871-1.69h-1.383
							C237.773,277.402,237.671,277.606,237.466,277.811z"/>
						<path style="fill:#4E4C4B;" d="M239.974,272.128v1.28h1.843v5.888h1.382v-5.888h1.894v-1.28H239.974z"/>
					</g>
					<g style="opacity:0.5;">
						<path style="fill:#4E4C4B;" d="M261.069,276.326c-0.051-0.256-0.205-0.461-0.409-0.666c-0.154-0.153-0.307-0.256-0.564-0.358
							c-0.205-0.051-0.461-0.153-0.768-0.205l-0.87-0.103c-0.154-0.051-0.307-0.051-0.41-0.102
							c-0.103-0.051-0.154-0.102-0.256-0.205c-0.051-0.051-0.103-0.153-0.154-0.205c0-0.102-0.051-0.205-0.051-0.256
							c0-0.256,0.103-0.461,0.256-0.666c0.205-0.154,0.461-0.256,0.87-0.256c0.205,0,0.461,0,0.717,0.102
							c0.256,0.051,0.512,0.154,0.717,0.358l0.871-0.87c-0.307-0.256-0.614-0.512-0.973-0.614c-0.41-0.154-0.819-0.205-1.331-0.205
							c-0.358,0-0.717,0.051-1.024,0.153c-0.307,0.103-0.563,0.256-0.768,0.461c-0.205,0.205-0.409,0.409-0.512,0.666
							c-0.103,0.307-0.154,0.563-0.154,0.87c0,0.614,0.154,1.126,0.512,1.433c0.154,0.154,0.358,0.256,0.563,0.358
							c0.205,0.103,0.512,0.205,0.819,0.205l0.819,0.153c0.205,0.051,0.358,0.051,0.41,0.103c0.102,0,0.205,0.051,0.256,0.153
							c0.153,0.154,0.205,0.307,0.205,0.564c0,0.307-0.102,0.512-0.307,0.665c-0.205,0.154-0.512,0.256-0.973,0.256
							c-0.307,0-0.614-0.051-0.922-0.154c-0.307-0.102-0.563-0.256-0.768-0.461l-0.922,0.922c0.358,0.307,0.768,0.563,1.178,0.717
							c0.409,0.154,0.922,0.205,1.433,0.205c0.41,0,0.717-0.051,1.075-0.154c0.307-0.102,0.563-0.256,0.819-0.409
							c0.256-0.205,0.41-0.41,0.563-0.666c0.154-0.307,0.205-0.614,0.205-0.922C261.223,276.838,261.171,276.582,261.069,276.326z"
							/>
						<path style="fill:#4E4C4B;" d="M261.991,272.128v1.28h1.894v5.888h1.382v-5.888h1.843v-1.28H261.991z"/>
						<path style="fill:#4E4C4B;" d="M271.155,272.128h-1.075l-2.611,7.168h1.434l0.461-1.28h2.509l0.461,1.28h1.434
							L271.155,272.128z M269.722,276.838l0.922-2.611l0.87,2.611H269.722z"/>
						<path style="fill:#4E4C4B;" d="M278.477,276.224c0.154-0.102,0.307-0.154,0.461-0.256c0.153-0.102,0.307-0.256,0.409-0.409
							c0.154-0.154,0.256-0.358,0.307-0.563c0.051-0.205,0.103-0.409,0.103-0.666c0-0.307-0.051-0.563-0.154-0.819
							c-0.103-0.307-0.256-0.512-0.461-0.717c-0.205-0.205-0.461-0.358-0.717-0.461c-0.307-0.103-0.614-0.205-0.973-0.205h-2.816
							v7.168h1.382v-2.867h1.024l1.382,2.867h1.638L278.477,276.224z M278.067,274.995c-0.154,0.205-0.409,0.256-0.717,0.256h-1.331
							v-1.843h1.331c0.307,0,0.563,0.051,0.717,0.256c0.205,0.153,0.307,0.409,0.307,0.665
							C278.374,274.637,278.272,274.842,278.067,274.995z"/>
						<path style="fill:#4E4C4B;" d="M280.678,272.128v1.28h1.843v5.888h1.382v-5.888h1.894v-1.28H280.678z"/>
					</g>
					<g>
						<path style="opacity:0.5;fill:#90756A;" d="M416.622,275.866h-17.455c-5.684,0-10.335-4.651-10.335-10.335l0,0
							c0-5.684,4.651-10.335,10.335-10.335h17.455c5.684,0,10.335,4.651,10.335,10.335l0,0
							C426.957,271.215,422.306,275.866,416.622,275.866z"/>
						<path style="fill:#FCF4D1;" d="M409.139,257.229h-2.509l-5.991,16.435h3.328l1.024-2.918h5.837l0.973,2.918h3.328
							L409.139,257.229z M405.862,268.032l2.099-5.939l1.997,5.939H405.862z"/>
					</g>
					<g>
						<path style="opacity:0.5;fill:#90756A;" d="M359.206,275.866h-17.454c-5.684,0-10.335-4.651-10.335-10.335l0,0
							c0-5.684,4.651-10.335,10.335-10.335h17.454c5.684,0,10.335,4.651,10.335,10.335l0,0
							C369.541,271.215,364.89,275.866,359.206,275.866z"/>
						<path style="fill:#FCF4D1;" d="M356.198,267.469c-0.153-0.461-0.41-0.87-0.768-1.28c-0.154-0.154-0.307-0.307-0.512-0.41
							c-0.153-0.154-0.41-0.307-0.717-0.461c1.331-0.768,2.048-1.894,2.048-3.481c0-0.717-0.154-1.331-0.358-1.895
							c-0.256-0.563-0.614-1.024-1.024-1.433c-0.461-0.358-0.973-0.666-1.638-0.922c-0.614-0.205-1.331-0.307-2.099-0.307h-6.656
							v16.486h6.912c0.768,0,1.485-0.102,2.099-0.307c0.666-0.256,1.178-0.563,1.638-0.973c0.409-0.409,0.768-0.87,0.973-1.485
							c0.256-0.563,0.358-1.229,0.358-1.946C356.454,268.493,356.403,267.929,356.198,267.469z M347.699,260.147h3.174
							c0.666,0,1.178,0.153,1.587,0.512c0.359,0.358,0.563,0.819,0.563,1.383c0,0.614-0.205,1.075-0.563,1.383
							c-0.41,0.358-0.921,0.512-1.587,0.512h-3.174V260.147z M352.666,270.387c-0.41,0.358-0.922,0.512-1.587,0.512h-3.379v-4.045
							h3.379c0.666,0,1.177,0.153,1.587,0.512c0.358,0.358,0.563,0.871,0.563,1.485
							C353.229,269.517,353.024,269.978,352.666,270.387z"/>
					</g>
					<g>
						<path style="fill:#9D4545;" d="M271.711,333.512h-45.473c-12.505,0-22.737-10.232-22.737-22.737l0,0
							c0-12.505,10.231-22.737,22.737-22.737h45.473c12.505,0,22.737,10.232,22.737,22.737l0,0
							C294.448,323.28,284.217,333.512,271.711,333.512z"/>
						<g>
							<path style="fill:#32302F;" d="M239.329,317.665h-15.158c-3.411,0-6.201-2.79-6.201-6.201l0,0c0-3.41,2.79-6.201,6.201-6.201
								h15.158c3.411,0,6.201,2.79,6.201,6.201l0,0C245.53,314.874,242.739,317.665,239.329,317.665z"/>
							<path style="fill:#32302F;" d="M273.778,317.665h-15.158c-3.411,0-6.201-2.79-6.201-6.201l0,0c0-3.41,2.79-6.201,6.201-6.201
								h15.158c3.411,0,6.201,2.79,6.201,6.201l0,0C279.979,314.874,277.189,317.665,273.778,317.665z"/>
						</g>
					</g>
				</g>
				<g style="opacity:0.1;">
					<path style="fill:#FFFFFF;" d="M281.066,172.852c0-6.405-5.245-11.65-11.599-11.65H70.314c-6.405,0-11.65,5.245-11.65,11.65
						v-7.565c0-6.405,5.245-11.65,11.65-11.65h199.153c6.354,0,11.599,5.245,11.599,11.65V172.852z"/>
					<path style="fill:#FFFFFF;" d="M453.289,254.147v7.565c0-6.405-5.195-11.599-11.599-11.599H281.066v-7.565H441.69
						C448.095,242.548,453.289,247.742,453.289,254.147z"/>
				</g>
			</g>
			<path style="opacity:0.06;fill:#0F0F0F;" d="M479.949,158.515v194.97c0,13.67-11.161,24.832-24.832,24.832H133.683l24.832-24.832
				l75.725-75.725l1.229-1.178v-0.051l142.848-142.848h76.8c2.56,0,5.069,0.41,7.373,1.126c0.051,0,0.103,0.051,0.103,0.051
				c7.68,2.407,13.773,8.499,16.179,16.179c0.051,0.051,0.051,0.102,0.051,0.102C479.539,153.497,479.949,155.955,479.949,158.515z"
				/>
		</g>
		<path style="opacity:0.06;fill:#FFFFFF;" d="M480.871,158.464v6.4c0-2.56-0.41-5.018-1.126-7.373c0,0,0-0.051-0.051-0.102
			c-2.406-7.68-8.499-13.773-16.179-16.179c0,0-0.051-0.051-0.103-0.051c-2.304-0.717-4.813-1.126-7.373-1.126H57.805
			c-13.671,0-24.832,11.161-24.832,24.832v-6.4c0-13.671,11.162-24.832,24.832-24.832h398.233c2.56,0,5.069,0.41,7.373,1.127
			c0.051,0,0.103,0.051,0.103,0.051c7.68,2.406,13.773,8.499,16.179,16.179c0.051,0.051,0.051,0.102,0.051,0.102
			C480.461,153.446,480.871,155.904,480.871,158.464z"/>
	</g>
</g>
</svg>
